<svg id="Layer_1" data-name="Layer 1" xmlns="http://www.w3.org/2000/svg" viewBox="0 0 544 544"><defs><style>.cls-1,.cls-2{fill:#00acf7;}.cls-2{opacity:0.29;isolation:isolate;}.cls-3{fill:#10a4e3;}.cls-4{fill:#b5c3c2;}.cls-5{fill:#0188c2;}.cls-6{fill:#95a9a7;}.cls-7{fill:#01648e;}</style></defs><path class="cls-1" d="M289,162.81H220.83V434H289Z"/><path class="cls-1" d="M277.82,143.34H231.93v114h45.89Z"/><path class="cls-1" d="M267.63,131H242.19v63.23h25.44Z"/><path class="cls-1" d="M263.54,163.53H246.21V120.42h17.33Z"/><path class="cls-1" d="M290.81,162.1H219V165h71.8Z"/><path class="cls-1" d="M279.45,142H230.24v2.79h49.21Z"/><path class="cls-1" d="M268.67,129.83H240.3V132h28.37Z"/><path class="cls-2" d="M238.29,148h-2.14v11.94h2.14Z"/><path class="cls-2" d="M244.2,148h-2.15v11.94h2.15Z"/><path class="cls-2" d="M250.1,148H248v11.94h2.14Z"/><path class="cls-2" d="M256,148h-2.14v11.94H256Z"/><path class="cls-2" d="M261.92,148h-2.14v11.94h2.14Z"/><path class="cls-2" d="M267.83,148h-2.14v11.94h2.14Z"/><path class="cls-2" d="M273.73,148h-2.14v11.94h2.14Z"/><path class="cls-1" d="M231.93,173.59H226.8v14.15h5.13Z"/><path class="cls-2" d="M242.12,173.59H237v14.15h5.13Z"/><path class="cls-1" d="M252.31,173.59h-5.13v14.15h5.13Z"/><path class="cls-1" d="M262.5,173.59h-5.12v14.15h5.12Z"/><path class="cls-1" d="M272.76,173.59h-5.13v14.15h5.13Z"/><path class="cls-1" d="M283,173.59h-5.13v14.15H283Z"/><path class="cls-1" d="M231.93,195.73H226.8v14.15h5.13Z"/><path class="cls-1" d="M242.12,195.73H237v14.15h5.13Z"/><path class="cls-1" d="M252.31,195.73h-5.13v14.15h5.13Z"/><path class="cls-2" d="M262.5,195.73h-5.12v14.15h5.12Z"/><path class="cls-1" d="M272.76,195.73h-5.13v14.15h5.13Z"/><path class="cls-1" d="M283,195.73h-5.13v14.15H283Z"/><path class="cls-1" d="M231.93,217.8H226.8V232h5.13Z"/><path class="cls-1" d="M242.12,217.8H237V232h5.13Z"/><path class="cls-1" d="M252.31,217.8h-5.13V232h5.13Z"/><path class="cls-1" d="M262.5,217.8h-5.12V232h5.12Z"/><path class="cls-2" d="M272.76,217.8h-5.13V232h5.13Z"/><path class="cls-2" d="M283,217.8h-5.13V232H283Z"/><path class="cls-2" d="M231.93,239.87H226.8V254h5.13Z"/><path class="cls-1" d="M242.12,239.87H237V254h5.13Z"/><path class="cls-1" d="M252.31,239.87h-5.13V254h5.13Z"/><path class="cls-1" d="M262.5,239.87h-5.12V254h5.12Z"/><path class="cls-1" d="M272.76,239.87h-5.13V254h5.13Z"/><path class="cls-1" d="M283,239.87h-5.13V254H283Z"/><path class="cls-1" d="M231.93,261.94H226.8v14.15h5.13Z"/><path class="cls-2" d="M242.12,261.94H237v14.15h5.13Z"/><path class="cls-1" d="M252.31,261.94h-5.13v14.15h5.13Z"/><path class="cls-2" d="M262.5,261.94h-5.12v14.15h5.12Z"/><path class="cls-1" d="M272.76,261.94h-5.13v14.15h5.13Z"/><path class="cls-1" d="M283,261.94h-5.13v14.15H283Z"/><path class="cls-1" d="M231.93,284.08H226.8v14.15h5.13Z"/><path class="cls-1" d="M242.12,284.08H237v14.15h5.13Z"/><path class="cls-1" d="M252.31,284.08h-5.13v14.15h5.13Z"/><path class="cls-1" d="M262.5,284.08h-5.12v14.15h5.12Z"/><path class="cls-1" d="M272.76,284.08h-5.13v14.15h5.13Z"/><path class="cls-2" d="M283,284.08h-5.13v14.15H283Z"/><path class="cls-1" d="M231.93,306.15H226.8V320.3h5.13Z"/><path class="cls-2" d="M242.12,306.15H237V320.3h5.13Z"/><path class="cls-2" d="M252.31,306.15h-5.13V320.3h5.13Z"/><path class="cls-1" d="M262.5,306.15h-5.12V320.3h5.12Z"/><path class="cls-1" d="M272.76,306.15h-5.13V320.3h5.13Z"/><path class="cls-1" d="M283,306.15h-5.13V320.3H283Z"/><path class="cls-1" d="M231.93,328.22H226.8v14.15h5.13Z"/><path class="cls-1" d="M242.12,328.22H237v14.15h5.13Z"/><path class="cls-1" d="M252.31,328.22h-5.13v14.15h5.13Z"/><path class="cls-1" d="M262.5,328.22h-5.12v14.15h5.12Z"/><path class="cls-2" d="M272.76,328.22h-5.13v14.15h5.13Z"/><path class="cls-1" d="M283,328.22h-5.13v14.15H283Z"/><path class="cls-1" d="M231.93,350.29H226.8v14.15h5.13Z"/><path class="cls-2" d="M242.12,350.29H237v14.15h5.13Z"/><path class="cls-1" d="M252.31,350.29h-5.13v14.15h5.13Z"/><path class="cls-1" d="M262.5,350.29h-5.12v14.15h5.12Z"/><path class="cls-1" d="M272.76,350.29h-5.13v14.15h5.13Z"/><path class="cls-1" d="M283,350.29h-5.13v14.15H283Z"/><path class="cls-1" d="M231.93,372.43H226.8v14.15h5.13Z"/><path class="cls-1" d="M242.12,372.43H237v14.15h5.13Z"/><path class="cls-1" d="M252.31,372.43h-5.13v14.15h5.13Z"/><path class="cls-2" d="M262.5,372.43h-5.12v14.15h5.12Z"/><path class="cls-1" d="M272.76,372.43h-5.13v14.15h5.13Z"/><path class="cls-2" d="M283,372.43h-5.13v14.15H283Z"/><path class="cls-2" d="M231.93,394.5H226.8v14.15h5.13Z"/><path class="cls-1" d="M242.12,394.5H237v14.15h5.13Z"/><path class="cls-2" d="M252.31,394.5h-5.13v14.15h5.13Z"/><path class="cls-1" d="M262.5,394.5h-5.12v14.15h5.12Z"/><path class="cls-1" d="M272.76,394.5h-5.13v14.15h5.13Z"/><path class="cls-1" d="M283,394.5h-5.13v14.15H283Z"/><path class="cls-1" d="M132.41,173.13H22.9V401.64H132.41Z"/><path class="cls-1" d="M135.53,169.17H19.78v6.43H135.53Z"/><path class="cls-1" d="M128.78,160.93H26.6v30.7H128.78Z"/><path class="cls-1" d="M74.83,148.33H34.39V181.9H74.83Z"/><path class="cls-1" d="M57.82,157.81H34.39V140.16H51.2Z"/><path class="cls-1" d="M46.14,125.48H43.87v39.34h2.27Z"/><path class="cls-1" d="M45,125.48a2,2,0,1,0-2-2A2,2,0,0,0,45,125.48Z"/><path class="cls-3" d="M516.39,227.14V114.84H497.63V84.72h-6.75V40.64h-37V8.18h-3.31V40.64h-7.21V0h-3.31V40.64H416.61v74.2H404.54v112.3H394.22V431.7H523.73V227.14Z"/><path class="cls-4" d="M1302.53,414.82H-130.18V448.9H1302.53Z"/><path class="cls-5" d="M1322.65,445.52H-181.59V544H1322.65Z"/><path class="cls-5" d="M328.65,311.66H241.21V450.52h87.44Z"/><path class="cls-5" d="M228,382.81H77.69v67.71H228Z"/><path class="cls-5" d="M191.23,231.49h-33V397.81h33Z"/><path class="cls-5" d="M181,221.24H160.78V243.5H181Z"/><path class="cls-5" d="M279.58,336.53H222.12v114h57.46Z"/><path class="cls-5" d="M450.63,215.85H342.8V450.52H450.63Z"/><path class="cls-5" d="M440.05,207.8H353.39v39.08h86.66Z"/><path class="cls-5" d="M458.94,220.78H334.43v2.73H458.94Z"/><path class="cls-5" d="M374.1,332.05H323.27V450.58H374.1Z"/><path class="cls-6" d="M17.64,327.5h-58.3v123h58.3Z"/><path class="cls-5" d="M94.37,294.07H-21.77V450.52H94.37Z"/><path class="cls-5" d="M97.36,288.1H-28.58v6H97.36Z"/><path class="cls-5" d="M34.39,271.8h-51v31.75h51Z"/><path class="cls-5" d="M59.64,271.8H51.07v19.28h8.57Z"/><path class="cls-5" d="M77.69,271.8H68.27v19.28h9.42Z"/><path class="cls-5" d="M1047,397.81H440v52.71h607Z"/><path class="cls-7" d="M1292.14,468.89l-10.64-71.08h-21.68V338.86h2.66v-5.32H1252V310.63h-1.3v22.91h-7.27V314.78h-1.3v18.76h-43.95v5.32h3V458.5H1151V404.88h-28.57V273.3h2.6v-6.49h-5.71v-8.25h-6.56V237.79h-7.92V223.12H1103v14.67h-4.29L1096.1,246h-17.27v12.59h-45.25v8.25h-5.71v6.49h2.6v85.62H992.62v84.13l-42-18.56V342.76h6.81v-6H945.49v-16.3h-51v16.3H877.78v-16.3h-8.57v16.3h-8.57v-16.3h-9.47v16.3H831.5v6h3V456H815.33V454.8h-3.5V422.54h3.5v-2.6h-3.5V387.68h3.5v-2.6h-3.5V352.82h3.5v-2.53h-3.5V318h3.5v-2.59h-3.5V283.17h3.5v-2.6h-3.5V247.2h6v-2.6h3v-7.07H764.44v-7.92h1.82v-2.27H735.55v2.27h1.82v7.92h-14v7.07h3.05v2.6h5.91v33.37h-3.44v2.6h3.44v32.26h-3.44V318h3.44v32.27h-3.44v2.53h3.44v32.26h-3.44v2.6h3.44v32.26h-3.44v2.6h3.44V454.8h-3.44v2.6h3.44v26.36H713.15V381.9H635.71V456h-12.6V225.13h-9.28v6l-17.2,4.16v-3.83h-9.28v6.1l-17.14,4.22v-4.42h-9.35V244l-17.14,4.22v-3.7h-9.28v6l-17.2,4.16v-3.12H508V478.24H494.84V357.36H446.35v74.33H396.69V368.33h-6.11V347.5h3.64v-2.08h-16.1v-6.56h-1.69v6.56h-5.19V311.86h-1.3v33.56h-6.69v2.08h4v20.83H334.43V416.7H302.49l-16.68,61.54H252.38v-201H208V270h2.53v-2.47H177V270h2.66V426.5h-20.9v-52h7.4v-4.74H113.65V338.34H103.59v-6.49H81.26v6.49H63V450.58H3.29V367.3H-47v65.76H-90.71v42.06h-31.42v-52.9h-41.41v45.11H-201V544H1343.23V468.89Z"/></svg>