<svg width="544" height="544" viewBox="0 0 544 544" fill="none" xmlns="http://www.w3.org/2000/svg">
<path d="M288.99 162.812H220.828V434.034H288.99V162.812Z" fill="#00ACF7"/>
<path d="M277.824 143.336H231.928V257.329H277.824V143.336Z" fill="#00ACF7"/>
<path d="M267.633 131.002H242.186V194.231H267.633V131.002Z" fill="#00ACF7"/>
<path d="M263.542 163.526H246.209V120.422H252.441H258.673H263.542V163.526Z" fill="#00ACF7"/>
<path d="M290.807 162.098H219.01V164.954H290.807V162.098Z" fill="#00ACF7"/>
<path d="M279.447 141.975H230.24V144.766H279.447V141.975Z" fill="#00ACF7"/>
<path d="M268.671 129.834H240.303V131.976H268.671V129.834Z" fill="#00ACF7"/>
<path opacity="0.29" d="M238.291 147.947H236.148V159.892H238.291V147.947Z" fill="#00ACF7"/>
<path opacity="0.29" d="M244.197 147.947H242.055V159.892H244.197V147.947Z" fill="#00ACF7"/>
<path opacity="0.29" d="M250.105 147.947H247.963V159.892H250.105V147.947Z" fill="#00ACF7"/>
<path opacity="0.29" d="M256.011 147.947H253.869V159.892H256.011V147.947Z" fill="#00ACF7"/>
<path opacity="0.29" d="M261.92 147.947H259.777V159.892H261.92V147.947Z" fill="#00ACF7"/>
<path opacity="0.29" d="M267.828 147.947H265.686V159.892H267.828V147.947Z" fill="#00ACF7"/>
<path opacity="0.29" d="M273.734 147.947H271.592V159.892H273.734V147.947Z" fill="#00ACF7"/>
<path d="M231.927 173.588H226.799V187.74H231.927V173.588Z" fill="#00ACF7"/>
<path opacity="0.29" d="M242.121 173.588H236.992V187.74H242.121V173.588Z" fill="#00ACF7"/>
<path d="M252.312 173.588H247.184V187.74H252.312V173.588Z" fill="#00ACF7"/>
<path d="M262.503 173.588H257.375V187.74H262.503V173.588Z" fill="#00ACF7"/>
<path d="M272.761 173.588H267.633V187.74H272.761V173.588Z" fill="#00ACF7"/>
<path d="M282.953 173.588H277.824V187.74H282.953V173.588Z" fill="#00ACF7"/>
<path d="M231.927 195.725H226.799V209.876H231.927V195.725Z" fill="#00ACF7"/>
<path d="M242.121 195.725H236.992V209.876H242.121V195.725Z" fill="#00ACF7"/>
<path d="M252.312 195.725H247.184V209.876H252.312V195.725Z" fill="#00ACF7"/>
<path opacity="0.29" d="M262.503 195.725H257.375V209.876H262.503V195.725Z" fill="#00ACF7"/>
<path d="M272.761 195.725H267.633V209.876H272.761V195.725Z" fill="#00ACF7"/>
<path d="M282.953 195.725H277.824V209.876H282.953V195.725Z" fill="#00ACF7"/>
<path d="M231.927 217.797H226.799V231.949H231.927V217.797Z" fill="#00ACF7"/>
<path d="M242.121 217.797H236.992V231.949H242.121V217.797Z" fill="#00ACF7"/>
<path d="M252.312 217.797H247.184V231.949H252.312V217.797Z" fill="#00ACF7"/>
<path d="M262.503 217.797H257.375V231.949H262.503V217.797Z" fill="#00ACF7"/>
<path opacity="0.29" d="M272.761 217.797H267.633V231.949H272.761V217.797Z" fill="#00ACF7"/>
<path opacity="0.29" d="M282.953 217.797H277.824V231.949H282.953V217.797Z" fill="#00ACF7"/>
<path opacity="0.29" d="M231.927 239.869H226.799V254.021H231.927V239.869Z" fill="#00ACF7"/>
<path d="M242.121 239.869H236.992V254.021H242.121V239.869Z" fill="#00ACF7"/>
<path d="M252.312 239.869H247.184V254.021H252.312V239.869Z" fill="#00ACF7"/>
<path d="M262.503 239.869H257.375V254.021H262.503V239.869Z" fill="#00ACF7"/>
<path d="M272.761 239.869H267.633V254.021H272.761V239.869Z" fill="#00ACF7"/>
<path d="M282.953 239.869H277.824V254.021H282.953V239.869Z" fill="#00ACF7"/>
<path d="M231.927 261.939H226.799V276.091H231.927V261.939Z" fill="#00ACF7"/>
<path opacity="0.29" d="M242.121 261.939H236.992V276.091H242.121V261.939Z" fill="#00ACF7"/>
<path d="M252.312 261.939H247.184V276.091H252.312V261.939Z" fill="#00ACF7"/>
<path opacity="0.29" d="M262.503 261.939H257.375V276.091H262.503V261.939Z" fill="#00ACF7"/>
<path d="M272.761 261.939H267.633V276.091H272.761V261.939Z" fill="#00ACF7"/>
<path d="M282.953 261.939H277.824V276.091H282.953V261.939Z" fill="#00ACF7"/>
<path d="M231.927 284.076H226.799V298.228H231.927V284.076Z" fill="#00ACF7"/>
<path d="M242.121 284.076H236.992V298.228H242.121V284.076Z" fill="#00ACF7"/>
<path d="M252.312 284.076H247.184V298.228H252.312V284.076Z" fill="#00ACF7"/>
<path d="M262.503 284.076H257.375V298.228H262.503V284.076Z" fill="#00ACF7"/>
<path d="M272.761 284.076H267.633V298.228H272.761V284.076Z" fill="#00ACF7"/>
<path opacity="0.29" d="M282.953 284.076H277.824V298.228H282.953V284.076Z" fill="#00ACF7"/>
<path d="M231.927 306.148H226.799V320.3H231.927V306.148Z" fill="#00ACF7"/>
<path opacity="0.29" d="M242.121 306.148H236.992V320.3H242.121V306.148Z" fill="#00ACF7"/>
<path opacity="0.29" d="M252.312 306.148H247.184V320.3H252.312V306.148Z" fill="#00ACF7"/>
<path d="M262.503 306.148H257.375V320.3H262.503V306.148Z" fill="#00ACF7"/>
<path d="M272.761 306.148H267.633V320.3H272.761V306.148Z" fill="#00ACF7"/>
<path d="M282.953 306.148H277.824V320.3H282.953V306.148Z" fill="#00ACF7"/>
<path d="M231.927 328.219H226.799V342.371H231.927V328.219Z" fill="#00ACF7"/>
<path d="M242.121 328.219H236.992V342.371H242.121V328.219Z" fill="#00ACF7"/>
<path d="M252.312 328.219H247.184V342.371H252.312V328.219Z" fill="#00ACF7"/>
<path d="M262.503 328.219H257.375V342.371H262.503V328.219Z" fill="#00ACF7"/>
<path opacity="0.29" d="M272.761 328.219H267.633V342.371H272.761V328.219Z" fill="#00ACF7"/>
<path d="M282.953 328.219H277.824V342.371H282.953V328.219Z" fill="#00ACF7"/>
<path d="M231.927 350.291H226.799V364.443H231.927V350.291Z" fill="#00ACF7"/>
<path opacity="0.29" d="M242.121 350.291H236.992V364.443H242.121V350.291Z" fill="#00ACF7"/>
<path d="M252.312 350.291H247.184V364.443H252.312V350.291Z" fill="#00ACF7"/>
<path d="M262.503 350.291H257.375V364.443H262.503V350.291Z" fill="#00ACF7"/>
<path d="M272.761 350.291H267.633V364.443H272.761V350.291Z" fill="#00ACF7"/>
<path d="M282.953 350.291H277.824V364.443H282.953V350.291Z" fill="#00ACF7"/>
<path d="M231.927 372.428H226.799V386.58H231.927V372.428Z" fill="#00ACF7"/>
<path d="M242.121 372.428H236.992V386.58H242.121V372.428Z" fill="#00ACF7"/>
<path d="M252.312 372.428H247.184V386.58H252.312V372.428Z" fill="#00ACF7"/>
<path opacity="0.29" d="M262.503 372.428H257.375V386.58H262.503V372.428Z" fill="#00ACF7"/>
<path d="M272.761 372.428H267.633V386.58H272.761V372.428Z" fill="#00ACF7"/>
<path opacity="0.29" d="M282.953 372.428H277.824V386.58H282.953V372.428Z" fill="#00ACF7"/>
<path opacity="0.29" d="M231.927 394.498H226.799V408.65H231.927V394.498Z" fill="#00ACF7"/>
<path d="M242.121 394.498H236.992V408.65H242.121V394.498Z" fill="#00ACF7"/>
<path opacity="0.29" d="M252.312 394.498H247.184V408.65H252.312V394.498Z" fill="#00ACF7"/>
<path d="M262.503 394.498H257.375V408.65H262.503V394.498Z" fill="#00ACF7"/>
<path d="M272.761 394.498H267.633V408.65H272.761V394.498Z" fill="#00ACF7"/>
<path d="M282.953 394.498H277.824V408.65H282.953V394.498Z" fill="#00ACF7"/>
<path d="M132.411 173.133H22.8965V401.639H132.411V173.133Z" fill="#00ACF7"/>
<path d="M135.527 169.172H19.7812V175.599H135.527V169.172Z" fill="#00ACF7"/>
<path d="M128.776 160.928H26.5977V191.633H128.776V160.928Z" fill="#00ACF7"/>
<path d="M74.8297 148.334H34.3867V181.896H74.8297V148.334Z" fill="#00ACF7"/>
<path d="M57.8216 157.814H34.3867V140.156H51.2001L57.8216 157.814Z" fill="#00ACF7"/>
<path d="M46.1373 125.482H43.8652V164.822H46.1373V125.482Z" fill="#00ACF7"/>
<path d="M44.9694 125.484C46.0809 125.484 46.9819 124.583 46.9819 123.471C46.9819 122.36 46.0809 121.459 44.9694 121.459C43.858 121.459 42.957 122.36 42.957 123.471C42.957 124.583 43.858 125.484 44.9694 125.484Z" fill="#00ACF7"/>
<path d="M516.392 227.143V114.837H497.631V84.716H490.879V40.6377H453.877V8.17948H450.566V24.4086V40.6377H443.361V0H440.05V40.6377H416.615V114.837H404.54V227.143H394.219V431.695H523.727V227.143H516.392Z" fill="#10A4E3"/>
<path d="M1302.53 414.816H-130.176V448.898H1302.53V414.816Z" fill="#B5C3C2"/>
<path d="M1322.65 445.521H-181.59V544H1322.65V445.521Z" fill="#0188C2"/>
<path d="M328.653 311.664H241.211V450.52H328.653V311.664Z" fill="#0188C2"/>
<path d="M228.032 382.811H77.6855V450.518H228.032V382.811Z" fill="#0188C2"/>
<path d="M191.226 231.492H158.248V397.808H191.226V231.492Z" fill="#0188C2"/>
<path d="M180.968 221.236H160.779V243.503H180.968V221.236Z" fill="#0188C2"/>
<path d="M279.576 336.527H222.125V450.521H279.576V336.527Z" fill="#0188C2"/>
<path d="M450.631 215.848H342.805V450.521H450.631V215.848Z" fill="#0188C2"/>
<path d="M440.05 207.797H353.387V246.877H440.05V207.797Z" fill="#0188C2"/>
<path d="M458.941 220.779H334.432V223.506H458.941V220.779Z" fill="#0188C2"/>
<path d="M374.095 332.047H323.266V450.584H374.095V332.047Z" fill="#0188C2"/>
<path d="M17.6387 327.504H-40.6562V450.521H17.6387V327.504Z" fill="#95A9A7"/>
<path d="M94.3699 294.072H-21.7656V450.521H94.3699V294.072Z" fill="#0188C2"/>
<path d="M97.3559 288.098H-28.582V294.07H97.3559V288.098Z" fill="#0188C2"/>
<path d="M34.3876 271.805H-16.6367V303.549H34.3876V271.805Z" fill="#0188C2"/>
<path d="M59.6393 271.805H51.0703V291.085H59.6393V271.805Z" fill="#0188C2"/>
<path d="M77.6863 271.805H68.2734V291.085H77.6863V271.805Z" fill="#0188C2"/>
<path d="M1046.95 397.809H439.984V450.521H1046.95V397.809Z" fill="#0188C2"/>
<path d="M1292.14 468.891L1281.5 397.807H1259.82V338.863H1262.48V333.54H1251.96V310.625H1250.66V333.54H1243.39V314.779H1242.09V333.54H1198.14V338.863H1201.13V458.504H1151.02V404.883H1122.45V273.298H1125.05V266.806H1119.34V258.562H1112.78V255.446V245.968V237.788H1104.86V223.117H1103.89H1102.98V237.788H1098.69L1096.1 245.968H1078.83V258.562H1033.58V266.806H1027.87V273.298H1030.47V358.922H992.619V443.054L950.618 424.488V342.758H957.434V336.786H945.49V320.492H894.465V336.786H877.782V320.492H869.213V336.786H860.644V320.492H851.166V336.786H831.496V342.758H834.483V455.973H815.332V454.804H811.827V422.541H815.332V419.944H811.827V387.68H815.332V385.084H811.827V352.82H815.332V350.289H811.827V318.025H815.332V315.428H811.827V283.165H815.332V280.568H811.827V247.201H817.799V244.605H820.785V237.529H764.438V229.609H766.255V227.337H735.55V229.609H737.368V237.529H723.411V244.605H726.462V247.201H732.369V280.568H728.928V283.165H732.369V315.428H728.928V318.025H732.369V350.289H728.928V352.82H732.369V385.084H728.928V387.68H732.369V419.944H728.928V422.541H732.369V454.804H728.928V457.401H732.369V483.757H713.154V381.903H635.708V455.973H623.115V225.13H613.831V231.102L596.629 235.257V231.427H587.346V237.529L570.208 241.748V237.334H560.86V244.02L543.722 248.24V244.54H534.439V250.512L517.236 254.667V251.551H507.953V478.239H494.84V357.364H446.347V431.694H396.686V368.335H390.584V347.497H394.219V345.42H378.12V338.863H376.432V345.42H371.239V311.858H369.94V345.42H363.254V347.497H367.214V368.335H334.431V416.698H302.492L285.809 478.239H252.377V277.193H208.039V269.987H210.57V267.52H177.009V269.987H179.67V277.193V288.813V426.501H158.767V374.502H166.168V369.764H113.65V338.344H103.588V331.852H81.2568V338.344H63.0153V450.585H3.29213V367.297H-47.0181V433.057H-90.7069V475.123H-122.126V422.216H-163.543V467.333H-201V543.999H-163.543H-150.884H-130.176H-122.126H-90.7069H-47.0181H-32.347H-24.4921H3.29213H63.0153H81.2568H103.588H113.65H152.86H158.767H179.67H214.66H231.928H252.377H334.431H353.387H385.39H396.686H447.256H460.823H507.953H512.562H517.236H534.439H543.722H560.86H568.65H570.208H587.346H596.629H611.43H613.831H618.441H623.115H635.708H699.716H708.869H713.154H732.369H766.255H797.285H811.827H834.483H890.635H950.034H950.618H992.619H1016.12H1030.47H1039.55H1109.86H1122.45H1137.51H1151.02H1201.13H1238.46H1246.05H1259.82H1343.23V468.891H1292.14Z" fill="#01648E"/>
</svg>
