<svg width="19" height="19" viewBox="0 0 19 19" fill="none" xmlns="http://www.w3.org/2000/svg">
<circle cx="9.5" cy="9.5" r="9.5" fill="#E73922"/>
<path d="M13.5468 6.35964C13.7971 6.10934 13.7971 5.70352 13.5468 5.45321C13.2965 5.20291 12.8907 5.20291 12.6404 5.45321L10.2071 7.88646C9.81658 8.27699 9.18342 8.27699 8.79289 7.88646L6.35964 5.45321C6.10934 5.20291 5.70352 5.20291 5.45321 5.45321C5.20291 5.70352 5.20291 6.10934 5.45321 6.35964L7.88646 8.79289C8.27699 9.18342 8.27699 9.81658 7.88646 10.2071L5.45321 12.6404C5.20291 12.8907 5.20291 13.2965 5.45321 13.5468C5.70352 13.7971 6.10934 13.7971 6.35964 13.5468L8.79289 11.1135C9.18342 10.723 9.81658 10.723 10.2071 11.1135L12.6404 13.5468C12.8907 13.7971 13.2965 13.7971 13.5468 13.5468C13.7971 13.2965 13.7971 12.8907 13.5468 12.6404L11.1135 10.2071C10.723 9.81658 10.723 9.18342 11.1135 8.79289L13.5468 6.35964Z" fill="white"/>
</svg>
