<svg width="24" height="24" viewBox="0 0 24 24" fill="none" xmlns="http://www.w3.org/2000/svg">
<path d="M20 4H4C2.89 4 2.01 4.89 2.01 6L2 18C2 19.11 2.89 20 4 20H8C8.55228 20 9 19.5523 9 19C9 18.4477 8.55228 18 8 18H5C4.44772 18 4 17.5523 4 17V13C4 12.4477 4.44772 12 5 12H21C21.5523 12 22 11.5523 22 11V6C22 4.89 21.11 4 20 4ZM20 7C20 7.55228 19.5523 8 19 8H5C4.44772 8 4 7.55228 4 7C4 6.44772 4.44772 6 5 6H19C19.5523 6 20 6.44772 20 7ZM15.6371 18.4641C15.2465 18.8541 14.6138 18.8538 14.2235 18.4635L12.8054 17.0454C12.4158 16.6558 11.7842 16.6558 11.3946 17.0454C11.0053 17.4347 11.0049 18.0657 11.3938 18.4554L14.2229 21.2912C14.6133 21.6825 15.2471 21.6829 15.6379 21.2921L21.2947 15.6353C21.6842 15.2458 21.6842 14.6142 21.2947 14.2247C20.9054 13.8354 20.2743 13.8351 19.8847 14.2241L15.6371 18.4641Z" fill="#0055B7"/>
</svg>
