<svg width="14" height="18" viewBox="0 0 14 18" fill="none" xmlns="http://www.w3.org/2000/svg">
<path d="M10 6C10.5523 6 11 6.44772 11 7V15C11 15.5523 10.5523 16 10 16H4C3.44772 16 3 15.5523 3 15V7C3 6.44772 3.44772 6 4 6H10ZM9.79289 0.292893C9.60536 0.105356 9.351 0 9.08579 0H4.91421C4.649 0 4.39464 0.105357 4.20711 0.292893L3.79289 0.707107C3.60536 0.894643 3.351 1 3.08579 1H1C0.447715 1 0 1.44772 0 2C0 2.55228 0.447715 3 1 3H13C13.5523 3 14 2.55228 14 2C14 1.44772 13.5523 1 13 1H10.9142C10.649 1 10.3946 0.894643 10.2071 0.707107L9.79289 0.292893ZM13 5C13 4.44771 12.5523 4 12 4H2C1.44772 4 1 4.44772 1 5V16C1 17.1 1.9 18 3 18H11C12.1 18 13 17.1 13 16V5Z" fill="white"/>
</svg>
