<svg width="38" height="38" viewBox="0 0 38 38" fill="none" xmlns="http://www.w3.org/2000/svg">
<path d="M30.0827 12.6667H28.4993V4.75H9.49935V12.6667H7.91602C5.28768 12.6667 3.16602 14.7883 3.16602 17.4167V26.9167H9.49935V33.25H28.4993V26.9167H34.8327V17.4167C34.8327 14.7883 32.711 12.6667 30.0827 12.6667ZM12.666 7.91667H25.3327V12.6667H12.666V7.91667ZM25.3327 26.9167V30.0833H12.666V23.75H25.3327V26.9167ZM28.4993 23.75V20.5833H9.49935V23.75H6.33268V17.4167C6.33268 16.5458 7.04518 15.8333 7.91602 15.8333H30.0827C30.9535 15.8333 31.666 16.5458 31.666 17.4167V23.75H28.4993Z" fill="#67B8EE"/>
<path d="M28.4994 19.7917C29.3738 19.7917 30.0827 19.0828 30.0827 18.2083C30.0827 17.3339 29.3738 16.625 28.4994 16.625C27.6249 16.625 26.916 17.3339 26.916 18.2083C26.916 19.0828 27.6249 19.7917 28.4994 19.7917Z" fill="#67B8EE"/>
</svg>
