<svg width="24" height="24" viewBox="0 0 24 24" fill="none" xmlns="http://www.w3.org/2000/svg">
<path d="M19 15C18.4477 15 18 15.4477 18 16V17C18 17.5523 17.5523 18 17 18H7C6.44772 18 6 17.5523 6 17V16C6 15.4477 5.55228 15 5 15C4.44772 15 4 15.4477 4 16V18C4 19.1 4.9 20 6 20H18C19.1 20 20 19.1 20 18V16C20 15.4477 19.5523 15 19 15ZM16.2943 11.7057C16.6841 11.3159 16.6841 10.6841 16.2943 10.2943C15.9051 9.90511 15.2743 9.9045 14.8843 10.293L14.7057 10.4708C14.0752 11.0989 13 10.6523 13 9.76237V5C13 4.44771 12.5523 4 12 4C11.4477 4 11 4.44772 11 5V9.76237C11 10.6523 9.92478 11.0989 9.29426 10.4708L9.11568 10.293C8.72572 9.9045 8.09489 9.90511 7.70568 10.2943C7.31594 10.6841 7.31594 11.3159 7.70568 11.7057L11.2929 15.2929C11.6834 15.6834 12.3166 15.6834 12.7071 15.2929L16.2943 11.7057Z" fill="white"/>
</svg>
