<svg width="24" height="24" viewBox="0 0 24 24" fill="none" xmlns="http://www.w3.org/2000/svg">
<path d="M19 15C18.4477 15 18 15.4477 18 16V17C18 17.5523 17.5523 18 17 18H7C6.44772 18 6 17.5523 6 17V16C6 15.4477 5.55228 15 5 15C4.44772 15 4 15.4477 4 16V18C4 19.1 4.9 20 6 20H18C19.1 20 20 19.1 20 18V16C20 15.4477 19.5523 15 19 15ZM7.70568 8.29432C7.31594 8.68406 7.31594 9.31594 7.70568 9.70568C8.09489 10.0949 8.72572 10.0955 9.11568 9.70705L9.29426 9.52915C9.92478 8.90106 11 9.34765 11 10.2376V15C11 15.5523 11.4477 16 12 16C12.5523 16 13 15.5523 13 15V10.2376C13 9.34765 14.0752 8.90106 14.7057 9.52915L14.8843 9.70704C15.2743 10.0955 15.9051 10.0949 16.2943 9.70568C16.6841 9.31594 16.6841 8.68406 16.2943 8.29432L12.7071 4.70711C12.3166 4.31658 11.6834 4.31658 11.2929 4.70711L7.70568 8.29432Z" fill="white"/>
</svg>
