<svg xmlns="http://www.w3.org/2000/svg" xmlns:xlink="http://www.w3.org/1999/xlink" viewBox="0 0 321.08 204.55"><defs><style>.cls-1{fill:url(#linear-gradient);}.cls-2{fill:url(#linear-gradient-2);}</style><linearGradient id="linear-gradient" x1="43.93" y1="153.34" x2="279.89" y2="17.11" gradientTransform="matrix(1, 0, 0, -1, 0, 171.06)" gradientUnits="userSpaceOnUse"><stop offset="0" stop-color="#4a9ff2"/><stop offset="0.11" stop-color="#09407c"/><stop offset="0.27" stop-color="#3895d8"/><stop offset="0.32" stop-color="#2062ad" stop-opacity="0.76"/><stop offset="0.46" stop-color="#3d41ae"/><stop offset="0.81" stop-color="#1d2295" stop-opacity="0.83"/><stop offset="1" stop-color="#585de4"/></linearGradient><linearGradient id="linear-gradient-2" x1="63.37" y1="29.34" x2="98.89" y2="8.83" xlink:href="#linear-gradient"/></defs><g id="Layer_2" data-name="Layer 2"><g id="Layer_1-2" data-name="Layer 1"><path class="cls-1" d="M52.11,197.15l-49-87.42c-6-10.46-2.84-21.67,6-26.58L147.69,5.57c7.52-4.34,16.87-2.61,22.9,4.87,12.44-6.5,86.23,13.73,86.23,13.73l20.41-7.58c4.63-1.67,40.06-20.07,43-16v77c2.71,4.57-1.94,10.26-6.15,13.5-8.13,6-14.65,12.48-23.35,23.49-6.6,8.54-22.27,14.85-25.78,15.16-10.73,1.82-120.75,19.44-120.75,19.44A19.43,19.43,0,0,1,122,131.64c-.82-10.15,6.72-19.16,16.8-21l51.94-8.41a11.38,11.38,0,0,0,8.15-17L182.26,55.58l-148.4,83L61.94,188.8A6,6,0,0,0,69.71,191l56.71-31.71.5.29a19,19,0,0,0,12.69,2.32L193,153.26l.82,1.48a13.16,13.16,0,0,1-4.71,18l-2,1.17c-6.19,3.78-14,2.27-18.89-2.55a11.41,11.41,0,0,1-1.67,4,14.08,14.08,0,0,1-5.51,5.5,15.48,15.48,0,0,1-20.93-5.4,11.86,11.86,0,0,1-1.81,4.29,14,14,0,0,1-5.51,5.5,15.06,15.06,0,0,1-20-4.17l-37.15,21C67.06,207.11,55.85,204,52.11,197.15Zm116.8-165.3-7.36-13.27c-1.39-2.8-5-3.53-7.77-2.15L15.16,94A6,6,0,0,0,13,101.78l7.37,13.27Z"/><path class="cls-2" d="M101.18,156.87,75,171.49a5.59,5.59,0,0,1-7.53-2L59.08,154.6a5.58,5.58,0,0,1,2-7.52l26.14-14.63a5.59,5.59,0,0,1,7.52,2l8.43,14.89A5.58,5.58,0,0,1,101.18,156.87Z"/></g></g></svg>