<svg width="1776" height="1080" viewBox="0 0 1776 1080" fill="none" xmlns="http://www.w3.org/2000/svg">
<g opacity="0.12">
<g filter="url(#filter0_d)">
<path d="M15 5.99999C15 2.68628 17.6863 0 21 0H1770C1773.31 0 1776 2.68629 1776 6V1131C1776 1134.31 1773.31 1137 1770 1137H21C17.6863 1137 15 1134.31 15 1131V5.99999Z" fill="url(#paint0_linear)"/>
</g>
<mask id="mask0" mask-type="alpha" maskUnits="userSpaceOnUse" x="0" y="252" width="2084" height="885">
<path d="M0 258.943C0 255.63 2.68629 252.943 6 252.943H2077.61C2080.93 252.943 2083.61 255.63 2083.61 258.943V1130.74C2083.61 1134.05 2080.93 1136.74 2077.61 1136.74H6.00001C2.6863 1136.74 0 1134.05 0 1130.74V258.943Z" fill="#0777F0"/>
</mask>
<g mask="url(#mask0)">
<path d="M670.869 626.293H579.594V989.48H670.869V626.293Z" fill="#10A4E3"/>
<path d="M655.919 600.215H594.461V752.861H655.919V600.215Z" fill="#10A4E3"/>
<path d="M642.271 583.699H608.195V668.368H642.271V583.699Z" fill="#10A4E3"/>
<path d="M636.792 627.25H613.582V569.529H621.927H630.272H636.792V627.25Z" fill="#10A4E3"/>
<path d="M673.303 625.336H577.16V629.161H673.303V625.336Z" fill="#10A4E3"/>
<path d="M658.091 598.389H592.199V602.127H658.091V598.389Z" fill="#10A4E3"/>
<path d="M643.66 582.135H605.672V585.003H643.66V582.135Z" fill="#10A4E3"/>
<path opacity="0.29" d="M602.978 606.387H600.109V622.382H602.978V606.387Z" fill="#10A4E3"/>
<path opacity="0.29" d="M610.888 606.387H608.02V622.382H610.888V606.387Z" fill="#10A4E3"/>
<path opacity="0.29" d="M618.798 606.387H615.93V622.382H618.798V606.387Z" fill="#10A4E3"/>
<path opacity="0.29" d="M626.708 606.387H623.84V622.382H626.708V606.387Z" fill="#10A4E3"/>
<path opacity="0.29" d="M634.619 606.387H631.75V622.382H634.619V606.387Z" fill="#10A4E3"/>
<path opacity="0.29" d="M642.529 606.387H639.66V622.382H642.529V606.387Z" fill="#10A4E3"/>
<path opacity="0.29" d="M650.443 606.387H647.574V622.382H650.443V606.387Z" fill="#10A4E3"/>
<path d="M594.457 640.725H587.59V659.675H594.457V640.725Z" fill="#10A4E3"/>
<path opacity="0.29" d="M608.106 640.725H601.238V659.675H608.106V640.725Z" fill="#10A4E3"/>
<path d="M621.754 640.725H614.887V659.675H621.754V640.725Z" fill="#10A4E3"/>
<path d="M635.403 640.725H628.535V659.675H635.403V640.725Z" fill="#10A4E3"/>
<path d="M649.137 640.725H642.27V659.675H649.137V640.725Z" fill="#10A4E3"/>
<path d="M662.785 640.725H655.918V659.675H662.785V640.725Z" fill="#10A4E3"/>
<path d="M594.457 670.365H587.59V689.316H594.457V670.365Z" fill="#10A4E3"/>
<path d="M608.106 670.365H601.238V689.316H608.106V670.365Z" fill="#10A4E3"/>
<path d="M621.754 670.365H614.887V689.316H621.754V670.365Z" fill="#10A4E3"/>
<path opacity="0.29" d="M635.403 670.365H628.535V689.316H635.403V670.365Z" fill="#10A4E3"/>
<path d="M649.137 670.365H642.27V689.316H649.137V670.365Z" fill="#10A4E3"/>
<path d="M662.785 670.365H655.918V689.316H662.785V670.365Z" fill="#10A4E3"/>
<path d="M594.457 699.922H587.59V718.872H594.457V699.922Z" fill="#10A4E3"/>
<path d="M608.106 699.922H601.238V718.872H608.106V699.922Z" fill="#10A4E3"/>
<path d="M621.754 699.922H614.887V718.872H621.754V699.922Z" fill="#10A4E3"/>
<path d="M635.403 699.922H628.535V718.872H635.403V699.922Z" fill="#10A4E3"/>
<path opacity="0.29" d="M649.137 699.922H642.27V718.872H649.137V699.922Z" fill="#10A4E3"/>
<path opacity="0.29" d="M662.785 699.922H655.918V718.872H662.785V699.922Z" fill="#10A4E3"/>
<path opacity="0.29" d="M594.457 729.479H587.59V748.429H594.457V729.479Z" fill="#10A4E3"/>
<path d="M608.106 729.479H601.238V748.429H608.106V729.479Z" fill="#10A4E3"/>
<path d="M621.754 729.479H614.887V748.429H621.754V729.479Z" fill="#10A4E3"/>
<path d="M635.403 729.479H628.535V748.429H635.403V729.479Z" fill="#10A4E3"/>
<path d="M649.137 729.479H642.27V748.429H649.137V729.479Z" fill="#10A4E3"/>
<path d="M662.785 729.479H655.918V748.429H662.785V729.479Z" fill="#10A4E3"/>
<path d="M594.457 759.033H587.59V777.984H594.457V759.033Z" fill="#10A4E3"/>
<path opacity="0.29" d="M608.106 759.033H601.238V777.984H608.106V759.033Z" fill="#10A4E3"/>
<path d="M621.754 759.033H614.887V777.984H621.754V759.033Z" fill="#10A4E3"/>
<path opacity="0.29" d="M635.403 759.033H628.535V777.984H635.403V759.033Z" fill="#10A4E3"/>
<path d="M649.137 759.033H642.27V777.984H649.137V759.033Z" fill="#10A4E3"/>
<path d="M662.785 759.033H655.918V777.984H662.785V759.033Z" fill="#10A4E3"/>
<path d="M594.457 788.676H587.59V807.626H594.457V788.676Z" fill="#10A4E3"/>
<path d="M608.106 788.676H601.238V807.626H608.106V788.676Z" fill="#10A4E3"/>
<path d="M621.754 788.676H614.887V807.626H621.754V788.676Z" fill="#10A4E3"/>
<path d="M635.403 788.676H628.535V807.626H635.403V788.676Z" fill="#10A4E3"/>
<path d="M649.137 788.676H642.27V807.626H649.137V788.676Z" fill="#10A4E3"/>
<path opacity="0.29" d="M662.785 788.676H655.918V807.626H662.785V788.676Z" fill="#10A4E3"/>
<path d="M594.457 818.23H587.59V837.181H594.457V818.23Z" fill="#10A4E3"/>
<path opacity="0.29" d="M608.106 818.23H601.238V837.181H608.106V818.23Z" fill="#10A4E3"/>
<path opacity="0.29" d="M621.754 818.23H614.887V837.181H621.754V818.23Z" fill="#10A4E3"/>
<path d="M635.403 818.23H628.535V837.181H635.403V818.23Z" fill="#10A4E3"/>
<path d="M649.137 818.23H642.27V837.181H649.137V818.23Z" fill="#10A4E3"/>
<path d="M662.785 818.23H655.918V837.181H662.785V818.23Z" fill="#10A4E3"/>
<path d="M594.457 847.787H587.59V866.738H594.457V847.787Z" fill="#10A4E3"/>
<path d="M608.106 847.787H601.238V866.738H608.106V847.787Z" fill="#10A4E3"/>
<path d="M621.754 847.787H614.887V866.738H621.754V847.787Z" fill="#10A4E3"/>
<path d="M635.403 847.787H628.535V866.738H635.403V847.787Z" fill="#10A4E3"/>
<path opacity="0.29" d="M649.137 847.787H642.27V866.738H649.137V847.787Z" fill="#10A4E3"/>
<path d="M662.785 847.787H655.918V866.738H662.785V847.787Z" fill="#10A4E3"/>
<path d="M594.457 877.342H587.59V896.292H594.457V877.342Z" fill="#10A4E3"/>
<path opacity="0.29" d="M608.106 877.342H601.238V896.292H608.106V877.342Z" fill="#10A4E3"/>
<path d="M621.754 877.342H614.887V896.292H621.754V877.342Z" fill="#10A4E3"/>
<path d="M635.403 877.342H628.535V896.292H635.403V877.342Z" fill="#10A4E3"/>
<path d="M649.137 877.342H642.27V896.292H649.137V877.342Z" fill="#10A4E3"/>
<path d="M662.785 877.342H655.918V896.292H662.785V877.342Z" fill="#10A4E3"/>
<path d="M594.457 906.984H587.59V925.935H594.457V906.984Z" fill="#10A4E3"/>
<path d="M608.106 906.984H601.238V925.935H608.106V906.984Z" fill="#10A4E3"/>
<path d="M621.754 906.984H614.887V925.935H621.754V906.984Z" fill="#10A4E3"/>
<path opacity="0.29" d="M635.403 906.984H628.535V925.935H635.403V906.984Z" fill="#10A4E3"/>
<path d="M649.137 906.984H642.27V925.935H649.137V906.984Z" fill="#10A4E3"/>
<path opacity="0.29" d="M662.785 906.984H655.918V925.935H662.785V906.984Z" fill="#10A4E3"/>
<path opacity="0.29" d="M594.457 936.541H587.59V955.491H594.457V936.541Z" fill="#10A4E3"/>
<path d="M608.106 936.541H601.238V955.491H608.106V936.541Z" fill="#10A4E3"/>
<path opacity="0.29" d="M621.754 936.541H614.887V955.491H621.754V936.541Z" fill="#10A4E3"/>
<path d="M635.403 936.541H628.535V955.491H635.403V936.541Z" fill="#10A4E3"/>
<path d="M649.137 936.541H642.27V955.491H649.137V936.541Z" fill="#10A4E3"/>
<path d="M662.785 936.541H655.918V955.491H662.785V936.541Z" fill="#10A4E3"/>
<path d="M461.195 640.113H314.547V946.102H461.195V640.113Z" fill="#10A4E3"/>
<path d="M465.369 634.812H310.375V643.418H465.369V634.812Z" fill="#10A4E3"/>
<path d="M456.329 623.773H319.504V664.891H456.329V623.773Z" fill="#10A4E3"/>
<path d="M384.09 606.908H329.934V651.85H384.09V606.908Z" fill="#10A4E3"/>
<path d="M361.315 619.6H329.934V595.955H352.448L361.315 619.6Z" fill="#10A4E3"/>
<path d="M345.667 576.309H342.625V628.987H345.667V576.309Z" fill="#10A4E3"/>
<path d="M344.105 576.309C345.593 576.309 346.8 575.103 346.8 573.615C346.8 572.126 345.593 570.92 344.105 570.92C342.617 570.92 341.41 572.126 341.41 573.615C341.41 575.103 342.617 576.309 344.105 576.309Z" fill="#10A4E3"/>
<path d="M1675.93 969.399H1515.38L1495.38 519.457L1675.93 557.01V969.399Z" fill="#10A4E3"/>
<path d="M975.377 712.438V562.052H950.254V521.717H941.214V462.693H891.665V419.228H887.231V440.961V462.693H877.582V408.275H873.149V462.693H841.768V562.052H825.599V712.438H811.777V986.35H985.2V712.438H975.377Z" fill="#10A4E3"/>
<path d="M2028.08 963.75H109.57V1009.39H2028.08V963.75Z" fill="#10A4E3"/>
<path d="M1238.86 998.26H1153.84L1186.96 828.141H1238.86V998.26Z" fill="#10A4E3"/>
<path d="M2055.03 1004.87H40.7227V1136.74H2055.03V1004.87Z" fill="#0188C2"/>
<path d="M1169.23 683.405V608.038H1141.93V579.352H1127.33V555.272H1122.2V513.895H1120.9V555.272H1115.77V579.352H1101.16V608.038H1074.13V683.405H1068.48V820.318H1026.49V976.267H1068.48H1110.47H1174.62V683.405H1169.23Z" fill="#10A4E3"/>
<path d="M1325.96 769.986H1193.92V772.42H1199.92V995.653H1319.96V772.42H1325.96V769.986Z" fill="#10A4E3"/>
<path d="M723.979 825.619H606.887V1011.56H723.979V825.619Z" fill="#0188C2"/>
<path d="M589.24 920.893H387.914V1011.56H589.24V920.893Z" fill="#0188C2"/>
<path d="M539.953 718.264H495.793V940.975H539.953V718.264Z" fill="#0188C2"/>
<path d="M526.218 704.529H499.184V734.346H526.218V704.529Z" fill="#0188C2"/>
<path d="M658.264 858.914H581.332V1011.56H658.264V858.914Z" fill="#0188C2"/>
<path d="M887.318 697.312H742.93V1011.56H887.318V697.312Z" fill="#0188C2"/>
<path d="M873.151 686.533H757.102V738.864H873.151V686.533Z" fill="#0188C2"/>
<path d="M898.448 703.918H731.719V707.569H898.448V703.918Z" fill="#0188C2"/>
<path d="M784.831 852.914H716.766V1011.65H784.831V852.914Z" fill="#0188C2"/>
<path d="M307.507 846.83H229.445V1011.56H307.507V846.83Z" fill="#10A4E3"/>
<path d="M410.257 802.062H254.742V1011.56H410.257V802.062Z" fill="#0188C2"/>
<path d="M414.255 794.064H245.613V802.062H414.255V794.064Z" fill="#0188C2"/>
<path d="M329.935 772.246H261.609V814.754H329.935V772.246Z" fill="#0188C2"/>
<path d="M363.748 772.246H352.273V798.064H363.748V772.246Z" fill="#0188C2"/>
<path d="M387.913 772.246H375.309V798.064H387.913V772.246Z" fill="#0188C2"/>
<path d="M268.562 947.93H187.023V1011.65H268.562V947.93Z" fill="#10A4E3"/>
<path d="M194.846 920.893H156.25V1011.56H194.846V920.893Z" fill="#10A4E3"/>
<path d="M175.549 979.746H109.57V1011.56H175.549V979.746Z" fill="#10A4E3"/>
<path d="M1685.84 940.975H873.062V1011.56H1685.84V940.975Z" fill="#0188C2"/>
<path d="M1770.08 827.707H1644.55V1011.65H1770.08V827.707Z" fill="#10A4E3"/>
<path d="M1877.26 899.16H1751.74V1010.52H1877.26V899.16Z" fill="#10A4E3"/>
<path d="M1335.35 882.82H1264.94V976.268H1335.35V882.82Z" fill="#95A9A7"/>
<path d="M1796.07 652.809H1707.32V1011.56H1796.07V652.809Z" fill="#10A4E3"/>
<path d="M1764.43 704.355C1764.43 702.877 1763.38 701.66 1762.17 701.66C1760.95 701.66 1759.91 702.877 1759.91 704.355C1759.91 705.833 1760.95 707.05 1762.17 707.05C1763.38 707.05 1764.43 705.833 1764.43 704.355Z" fill="#82657C"/>
<path d="M2014.17 1036.16L1999.92 940.973H1970.88V862.042H1974.45V854.914H1960.36V824.228H1958.63V854.914H1948.89V829.792H1947.15V854.914H1888.3V862.042H1892.3V1022.25H1825.19V950.449H1786.94V774.245H1790.42V765.552H1782.77V754.512H1773.99V750.339V737.648V726.695H1763.38V707.049H1762.08H1760.86V726.695H1755.13L1751.65 737.648H1728.53V754.512H1667.94V765.552H1660.29V774.245H1663.76V888.903H1613.08V1001.56L1556.84 976.701V867.258H1565.97V859.261H1549.97V837.442H1481.65V859.261H1459.31V837.442H1447.83V859.261H1436.36V837.442H1423.67V859.261H1397.33V867.258H1401.33V1018.86H1375.68V1017.3H1370.99V974.093H1375.68V970.616H1370.99V927.413H1375.68V923.935H1370.99V880.732H1375.68V877.342H1370.99V834.138H1375.68V830.661H1370.99V787.458H1375.68V783.981H1370.99V739.299H1378.99V735.822H1382.99V726.347H1307.53V715.742H1309.97V712.699H1268.85V715.742H1271.28V726.347H1252.59V735.822H1256.68V739.299H1264.59V783.981H1259.98V787.458H1264.59V830.661H1259.98V834.138H1264.59V877.342H1259.98V880.732H1264.59V923.935H1259.98V927.413H1264.59V970.616H1259.98V974.093H1264.59V1017.3H1259.98V1020.77H1264.59V1056.07H1238.86V919.676H1135.15V1018.86H1118.29V709.744H1105.86V717.741L1082.82 723.304V718.176H1070.39V726.347L1047.44 731.997V726.086H1034.92V735.04L1011.97 740.69V735.735H999.544V743.733L976.508 749.296V745.124H964.077V1048.68H946.517V886.817H881.582V986.35H815.081V901.508H806.91V873.604H811.778V870.822H790.22V862.042H787.96V870.822H781.005V825.88H779.267V870.822H770.313V873.604H775.616V901.508H731.717V966.27H688.948L666.607 1048.68H621.839V779.46H562.467V769.811H565.857V766.508H520.915V769.811H524.479V779.46V795.02V979.396H496.488V909.766H506.398V903.42H436.073V861.347H422.599V852.654H392.696V861.347H368.269V1011.65H288.294V900.117H220.925V988.176H162.422V1044.51H120.349V973.659H64.8882V1034.07H14.7305V1136.74H64.8882H81.8393H109.569H120.349H162.422H220.925H240.571H251.089H288.294H368.269H392.696H422.599H436.073H488.578H496.488H524.479H571.334H594.457H621.839H731.717H757.1H799.956H815.081H882.799H900.967H964.077H970.249H976.508H999.544H1011.97H1034.92H1045.35H1047.44H1070.39H1082.82H1102.64H1105.86H1112.03H1118.29H1135.15H1220.86H1233.12H1238.86H1264.59H1309.97H1351.52H1370.99H1401.33H1476.52H1556.06H1556.84H1613.08H1644.55H1663.76H1675.93H1770.08H1786.94H1807.11H1825.19H1892.3H1942.28H1952.45H1970.88H2082.59V1036.16H2014.17Z" fill="#01648E"/>
<g opacity="0.52">
<path opacity="0.52" d="M380.437 872.217H375.309V877.346H380.437V872.217Z" fill="white"/>
<path opacity="0.52" d="M390.695 872.213H385.566V877.342H390.695V872.213Z" fill="white"/>
<path opacity="0.52" d="M380.437 884.297H375.309V889.426H380.437V884.297Z" fill="white"/>
<path opacity="0.52" d="M390.695 884.297H385.566V889.426H390.695V884.297Z" fill="white"/>
<path opacity="0.52" d="M380.437 895.945H375.309V901.074H380.437V895.945Z" fill="white"/>
<path opacity="0.52" d="M402.168 872.213H397.039V877.342H402.168V872.213Z" fill="white"/>
</g>
<path opacity="0.5" d="M754.231 718.176H750.754V737.561H754.231V718.176Z" fill="white"/>
<path opacity="0.5" d="M766.313 718.176H762.836V737.561H766.313V718.176Z" fill="white"/>
<path opacity="0.5" d="M778.309 718.176H774.832V737.561H778.309V718.176Z" fill="white"/>
<path opacity="0.5" d="M790.395 718.176H786.918V737.561H790.395V718.176Z" fill="white"/>
<path opacity="0.5" d="M802.477 718.176H799V737.561H802.477V718.176Z" fill="white"/>
<path opacity="0.5" d="M814.559 718.176H811.082V737.561H814.559V718.176Z" fill="white"/>
<path opacity="0.5" d="M826.555 718.176H823.078V737.561H826.555V718.176Z" fill="white"/>
<path opacity="0.5" d="M838.637 718.176H835.16V737.561H838.637V718.176Z" fill="white"/>
<path opacity="0.5" d="M850.723 718.176H847.246V737.561H850.723V718.176Z" fill="white"/>
<path opacity="0.5" d="M862.719 718.176H859.242V737.561H862.719V718.176Z" fill="white"/>
<path opacity="0.5" d="M874.801 718.176H871.324V737.561H874.801V718.176Z" fill="white"/>
<path opacity="0.5" d="M754.231 745.125H750.754V764.51H754.231V745.125Z" fill="white"/>
<path opacity="0.5" d="M766.313 745.125H762.836V764.51H766.313V745.125Z" fill="white"/>
<path opacity="0.5" d="M778.309 745.125H774.832V764.51H778.309V745.125Z" fill="white"/>
<path opacity="0.5" d="M790.395 745.125H786.918V764.51H790.395V745.125Z" fill="white"/>
<path opacity="0.5" d="M802.477 745.125H799V764.51H802.477V745.125Z" fill="white"/>
<path opacity="0.5" d="M814.559 745.125H811.082V764.51H814.559V745.125Z" fill="white"/>
<path opacity="0.5" d="M826.555 745.125H823.078V764.51H826.555V745.125Z" fill="white"/>
<path opacity="0.5" d="M838.637 745.125H835.16V764.51H838.637V745.125Z" fill="white"/>
<path opacity="0.5" d="M850.723 745.125H847.246V764.51H850.723V745.125Z" fill="white"/>
<path opacity="0.5" d="M862.719 745.125H859.242V764.51H862.719V745.125Z" fill="white"/>
<path opacity="0.5" d="M874.801 745.125H871.324V764.51H874.801V745.125Z" fill="white"/>
<path opacity="0.5" d="M754.231 772.072H750.754V791.457H754.231V772.072Z" fill="white"/>
<path opacity="0.5" d="M766.313 772.072H762.836V791.457H766.313V772.072Z" fill="white"/>
<path opacity="0.5" d="M778.309 772.072H774.832V791.457H778.309V772.072Z" fill="white"/>
<path opacity="0.5" d="M790.395 772.072H786.918V791.457H790.395V772.072Z" fill="white"/>
<path opacity="0.5" d="M802.477 772.072H799V791.457H802.477V772.072Z" fill="white"/>
<path opacity="0.5" d="M814.559 772.072H811.082V791.457H814.559V772.072Z" fill="white"/>
<path opacity="0.5" d="M826.555 772.072H823.078V791.457H826.555V772.072Z" fill="white"/>
<path opacity="0.5" d="M838.637 772.072H835.16V791.457H838.637V772.072Z" fill="white"/>
<path opacity="0.5" d="M850.723 772.072H847.246V791.457H850.723V772.072Z" fill="white"/>
<path opacity="0.5" d="M862.719 772.072H859.242V791.457H862.719V772.072Z" fill="white"/>
<path opacity="0.5" d="M874.801 772.072H871.324V791.457H874.801V772.072Z" fill="white"/>
<path opacity="0.5" d="M790.395 799.02H786.918V818.405H790.395V799.02Z" fill="white"/>
<path opacity="0.5" d="M802.477 799.02H799V818.405H802.477V799.02Z" fill="white"/>
<path opacity="0.5" d="M814.559 799.02H811.082V818.405H814.559V799.02Z" fill="white"/>
<path opacity="0.5" d="M826.555 799.02H823.078V818.405H826.555V799.02Z" fill="white"/>
<path opacity="0.5" d="M838.637 799.02H835.16V818.405H838.637V799.02Z" fill="white"/>
<path opacity="0.5" d="M850.723 799.02H847.246V818.405H850.723V799.02Z" fill="white"/>
<path opacity="0.5" d="M862.719 799.02H859.242V818.405H862.719V799.02Z" fill="white"/>
<path opacity="0.5" d="M874.801 799.02H871.324V818.405H874.801V799.02Z" fill="white"/>
<path opacity="0.5" d="M802.477 827.533H799V846.918H802.477V827.533Z" fill="white"/>
<path opacity="0.5" d="M814.559 827.533H811.082V846.918H814.559V827.533Z" fill="white"/>
<path opacity="0.5" d="M826.555 827.533H823.078V846.918H826.555V827.533Z" fill="white"/>
<path opacity="0.5" d="M838.637 827.533H835.16V846.918H838.637V827.533Z" fill="white"/>
<path opacity="0.5" d="M850.723 827.533H847.246V846.918H850.723V827.533Z" fill="white"/>
<path opacity="0.5" d="M862.719 827.533H859.242V846.918H862.719V827.533Z" fill="white"/>
<path opacity="0.5" d="M874.801 827.533H871.324V846.918H874.801V827.533Z" fill="white"/>
<path opacity="0.33" d="M992.157 766.248H983.898V787.198H992.157V766.248Z" fill="white"/>
<path opacity="0.33" d="M992.157 806.322H983.898V827.272H992.157V806.322Z" fill="white"/>
<path opacity="0.33" d="M992.157 846.395H983.898V867.344H992.157V846.395Z" fill="white"/>
<path opacity="0.33" d="M992.157 886.557H983.898V907.506H992.157V886.557Z" fill="white"/>
<path opacity="0.33" d="M992.157 924.373H983.898V945.323H992.157V924.373Z" fill="white"/>
<path opacity="0.33" d="M992.157 964.445H983.898V985.395H992.157V964.445Z" fill="white"/>
<path opacity="0.33" d="M1027.54 766.248H1019.28V787.198H1027.54V766.248Z" fill="white"/>
<path opacity="0.33" d="M1027.54 806.322H1019.28V827.272H1027.54V806.322Z" fill="white"/>
<path opacity="0.33" d="M1027.54 846.395H1019.28V867.344H1027.54V846.395Z" fill="white"/>
<path opacity="0.33" d="M1027.54 886.557H1019.28V907.506H1027.54V886.557Z" fill="white"/>
<path opacity="0.33" d="M1027.54 924.373H1019.28V945.323H1027.54V924.373Z" fill="white"/>
<path opacity="0.33" d="M1027.54 964.445H1019.28V985.395H1027.54V964.445Z" fill="white"/>
<path opacity="0.33" d="M1063 766.248H1054.74V787.198H1063V766.248Z" fill="white"/>
<path opacity="0.33" d="M1063 806.322H1054.74V827.272H1063V806.322Z" fill="white"/>
<path opacity="0.33" d="M1063 846.395H1054.74V867.344H1063V846.395Z" fill="white"/>
<path opacity="0.33" d="M1063 886.557H1054.74V907.506H1063V886.557Z" fill="white"/>
<path opacity="0.33" d="M1063 924.373H1054.74V945.323H1063V924.373Z" fill="white"/>
<path opacity="0.33" d="M1063 964.445H1054.74V985.395H1063V964.445Z" fill="white"/>
<path opacity="0.33" d="M1098.47 766.248H1090.21V787.198H1098.47V766.248Z" fill="white"/>
<path opacity="0.33" d="M1098.47 806.322H1090.21V827.272H1098.47V806.322Z" fill="white"/>
<path opacity="0.33" d="M1098.47 846.395H1090.21V867.344H1098.47V846.395Z" fill="white"/>
<path opacity="0.33" d="M1098.47 886.557H1090.21V907.506H1098.47V886.557Z" fill="white"/>
<path opacity="0.33" d="M1098.47 924.373H1090.21V945.323H1098.47V924.373Z" fill="white"/>
<path opacity="0.33" d="M1098.47 964.445H1090.21V985.395H1098.47V964.445Z" fill="white"/>
<path opacity="0.5" d="M857.59 473.82H850.723V492.162H857.59V473.82Z" fill="white"/>
<path opacity="0.5" d="M874.539 473.82H867.672V492.162H874.539V473.82Z" fill="white"/>
<path opacity="0.5" d="M891.492 473.82H884.625V492.162H891.492V473.82Z" fill="white"/>
<path opacity="0.5" d="M908.531 473.82H901.664V492.162H908.531V473.82Z" fill="white"/>
<path opacity="0.5" d="M857.59 504.418H850.723V522.76H857.59V504.418Z" fill="white"/>
<path opacity="0.5" d="M874.539 504.418H867.672V522.76H874.539V504.418Z" fill="white"/>
<path opacity="0.5" d="M891.492 504.418H884.625V522.76H891.492V504.418Z" fill="white"/>
<path opacity="0.5" d="M908.531 504.418H901.664V522.76H908.531V504.418Z" fill="white"/>
<path opacity="0.5" d="M857.59 534.932H850.723V553.274H857.59V534.932Z" fill="white"/>
<path opacity="0.5" d="M874.539 534.932H867.672V553.274H874.539V534.932Z" fill="white"/>
<path opacity="0.5" d="M927.742 473.82H920.875V492.162H927.742V473.82Z" fill="white"/>
<path opacity="0.4" d="M397.042 659.76H392.695V676.624H397.042V659.76Z" fill="white"/>
<path opacity="0.4" d="M412.428 659.76H408.082V676.624H412.428V659.76Z" fill="white"/>
<path opacity="0.4" d="M430.51 659.76H426.164V676.624H430.51V659.76Z" fill="white"/>
<path opacity="0.4" d="M445.897 659.76H441.551V676.624H445.897V659.76Z" fill="white"/>
<path opacity="0.4" d="M362.706 659.76H358.359V676.624H362.706V659.76Z" fill="white"/>
<path opacity="0.4" d="M378.178 659.76H373.832V676.624H378.178V659.76Z" fill="white"/>
<path opacity="0.4" d="M397.042 688.969H392.695V705.833H397.042V688.969Z" fill="white"/>
<path opacity="0.4" d="M412.428 688.969H408.082V705.833H412.428V688.969Z" fill="white"/>
<path opacity="0.4" d="M430.51 688.969H426.164V705.833H430.51V688.969Z" fill="white"/>
<path opacity="0.4" d="M445.897 688.969H441.551V705.833H445.897V688.969Z" fill="white"/>
<path opacity="0.4" d="M362.706 688.969H358.359V705.833H362.706V688.969Z" fill="white"/>
<path opacity="0.4" d="M378.178 688.969H373.832V705.833H378.178V688.969Z" fill="white"/>
<path opacity="0.4" d="M397.042 718.176H392.695V735.04H397.042V718.176Z" fill="white"/>
<path opacity="0.4" d="M412.428 718.176H408.082V735.04H412.428V718.176Z" fill="white"/>
<path opacity="0.4" d="M430.51 718.176H426.164V735.04H430.51V718.176Z" fill="white"/>
<path opacity="0.4" d="M445.897 718.176H441.551V735.04H445.897V718.176Z" fill="white"/>
<path opacity="0.4" d="M362.706 718.176H358.359V735.04H362.706V718.176Z" fill="white"/>
<path opacity="0.4" d="M378.178 718.176H373.832V735.04H378.178V718.176Z" fill="white"/>
<path opacity="0.5" d="M1215.73 788.674H1208.95V814.752H1215.73V788.674Z" fill="white"/>
<path opacity="0.5" d="M1236.51 788.674H1229.73V814.752H1236.51V788.674Z" fill="white"/>
<path opacity="0.5" d="M1255.98 788.674H1249.2V814.752H1255.98V788.674Z" fill="white"/>
<path opacity="0.33" d="M1681.06 794.066H1675.93V808.757H1681.06V794.066Z" fill="white"/>
<path opacity="0.33" d="M1697.23 794.066H1692.1V808.757H1697.23V794.066Z" fill="white"/>
<path opacity="0.33" d="M1681.06 794.066H1675.93V808.757H1681.06V794.066Z" fill="white"/>
<path opacity="0.33" d="M1697.23 794.066H1692.1V808.757H1697.23V794.066Z" fill="white"/>
<path opacity="0.33" d="M1712.45 794.066H1707.32V808.757H1712.45V794.066Z" fill="white"/>
<path opacity="0.33" d="M1728.53 794.066H1723.4V808.757H1728.53V794.066Z" fill="white"/>
<path opacity="0.33" d="M1681.06 820.404H1675.93V835.095H1681.06V820.404Z" fill="white"/>
<path opacity="0.33" d="M1697.23 820.404H1692.1V835.095H1697.23V820.404Z" fill="white"/>
<path opacity="0.33" d="M1681.06 820.404H1675.93V835.095H1681.06V820.404Z" fill="white"/>
<path opacity="0.33" d="M1697.23 820.404H1692.1V835.095H1697.23V820.404Z" fill="white"/>
<path opacity="0.33" d="M1712.45 820.404H1707.32V835.095H1712.45V820.404Z" fill="white"/>
<path opacity="0.33" d="M1728.53 820.404H1723.4V835.095H1728.53V820.404Z" fill="white"/>
<path opacity="0.33" d="M1681.06 848.395H1675.93V863.085H1681.06V848.395Z" fill="white"/>
<path opacity="0.33" d="M1697.23 848.395H1692.1V863.085H1697.23V848.395Z" fill="white"/>
<path opacity="0.33" d="M1681.06 848.395H1675.93V863.085H1681.06V848.395Z" fill="white"/>
<path opacity="0.33" d="M1697.23 848.395H1692.1V863.085H1697.23V848.395Z" fill="white"/>
<path opacity="0.33" d="M1712.45 848.395H1707.32V863.085H1712.45V848.395Z" fill="white"/>
<path opacity="0.33" d="M1728.53 848.395H1723.4V863.085H1728.53V848.395Z" fill="white"/>
<path opacity="0.33" d="M1746.17 794.066H1741.04V808.757H1746.17V794.066Z" fill="white"/>
<path opacity="0.33" d="M1746.17 820.404H1741.04V835.095H1746.17V820.404Z" fill="white"/>
<path opacity="0.33" d="M1762.34 794.066H1757.21V808.757H1762.34V794.066Z" fill="white"/>
<path opacity="0.33" d="M1279.72 750.516H1274.15V773.378H1279.72V750.516Z" fill="white"/>
<path opacity="0.33" d="M1307.27 750.516H1301.71V773.378H1307.27V750.516Z" fill="white"/>
<path opacity="0.33" d="M1334.74 750.516H1329.18V773.378H1334.74V750.516Z" fill="white"/>
<path opacity="0.33" d="M1362.21 750.516H1356.64V773.378H1362.21V750.516Z" fill="white"/>
<path opacity="0.33" d="M1279.72 797.629H1274.15V820.491H1279.72V797.629Z" fill="white"/>
<path opacity="0.33" d="M1307.27 797.629H1301.71V820.491H1307.27V797.629Z" fill="white"/>
<path opacity="0.33" d="M1334.74 797.629H1329.18V820.491H1334.74V797.629Z" fill="white"/>
<path opacity="0.33" d="M1362.21 797.629H1356.64V820.491H1362.21V797.629Z" fill="white"/>
<path opacity="0.33" d="M1279.72 845.875H1274.15V868.737H1279.72V845.875Z" fill="white"/>
<path opacity="0.33" d="M1307.27 845.875H1301.71V868.737H1307.27V845.875Z" fill="white"/>
<path opacity="0.33" d="M1334.74 845.875H1329.18V868.737H1334.74V845.875Z" fill="white"/>
<path opacity="0.33" d="M1362.21 845.875H1356.64V868.737H1362.21V845.875Z" fill="white"/>
<path opacity="0.33" d="M1279.72 894.119H1274.15V916.981H1279.72V894.119Z" fill="white"/>
<path opacity="0.33" d="M1307.27 894.119H1301.71V916.981H1307.27V894.119Z" fill="white"/>
<path opacity="0.33" d="M1334.74 894.119H1329.18V916.981H1334.74V894.119Z" fill="white"/>
<path opacity="0.33" d="M1362.21 894.119H1356.64V916.981H1362.21V894.119Z" fill="white"/>
<path opacity="0.33" d="M1279.72 937.932H1274.15V960.794H1279.72V937.932Z" fill="white"/>
<path opacity="0.33" d="M1307.27 937.932H1301.71V960.794H1307.27V937.932Z" fill="white"/>
<path opacity="0.33" d="M1334.74 937.932H1329.18V960.794H1334.74V937.932Z" fill="white"/>
<path opacity="0.33" d="M1279.72 986.785H1274.15V1009.65H1279.72V986.785Z" fill="white"/>
<path opacity="0.33" d="M1307.27 986.785H1301.71V1009.65H1307.27V986.785Z" fill="white"/>
<path opacity="0.33" d="M1334.74 986.785H1329.18V1009.65H1334.74V986.785Z" fill="white"/>
<path opacity="0.33" d="M1362.21 937.932H1356.64V960.794H1362.21V937.932Z" fill="white"/>
</g>
</g>
<defs>
<filter id="filter0_d" x="3" y="0" width="1785" height="1161" filterUnits="userSpaceOnUse" color-interpolation-filters="sRGB">
<feFlood flood-opacity="0" result="BackgroundImageFix"/>
<feColorMatrix in="SourceAlpha" type="matrix" values="0 0 0 0 0 0 0 0 0 0 0 0 0 0 0 0 0 0 127 0" result="hardAlpha"/>
<feOffset dy="12"/>
<feGaussianBlur stdDeviation="6"/>
<feColorMatrix type="matrix" values="0 0 0 0 0.705972 0 0 0 0 0.824711 0 0 0 0 0.920833 0 0 0 0.8 0"/>
<feBlend mode="normal" in2="BackgroundImageFix" result="effect1_dropShadow"/>
<feBlend mode="normal" in="SourceGraphic" in2="effect1_dropShadow" result="shape"/>
</filter>
<linearGradient id="paint0_linear" x1="895.5" y1="0" x2="895.5" y2="1137" gradientUnits="userSpaceOnUse">
<stop stop-color="#15B9FF"/>
<stop offset="0.998833" stop-color="#FFFFFE"/>
</linearGradient>
</defs>
</svg>
