<svg id="Layer_1" data-name="Layer 1" xmlns="http://www.w3.org/2000/svg" xmlns:xlink="http://www.w3.org/1999/xlink" viewBox="0 0 1761 1080"><defs><style>.cls-1{opacity:0.12;}.cls-2{fill:url(#linear-gradient);}.cls-3,.cls-4{fill:#10a4e3;}.cls-4{opacity:0.29;}.cls-10,.cls-11,.cls-12,.cls-13,.cls-4{isolation:isolate;}.cls-5{fill:#0188c2;}.cls-6{fill:#95a9a7;}.cls-7{fill:#82657c;}.cls-8{fill:#01648e;}.cls-10,.cls-9{opacity:0.52;}.cls-10,.cls-11,.cls-12,.cls-13{fill:#fff;}.cls-11{opacity:0.5;}.cls-12{opacity:0.33;}.cls-13{opacity:0.4;}</style><linearGradient id="linear-gradient" x1="880.5" y1="-236" x2="880.5" y2="901" gradientTransform="translate(0 236)" gradientUnits="userSpaceOnUse"><stop offset="0" stop-color="#15b9ff"/><stop offset="1" stop-color="#fffffe"/></linearGradient></defs><g class="cls-1"><path class="cls-2" d="M0,6A6,6,0,0,1,6,0H1755a6,6,0,0,1,6,6V1131a6,6,0,0,1-6,6H6a6,6,0,0,1-6-6Z"/><path class="cls-3" d="M656.1,626.3H564.8V989.5h91.3Z"/><path class="cls-3" d="M641.2,600.2H579.7V752.8h61.5Z"/><path class="cls-3" d="M627.5,583.7H593.4v84.7h34.1Z"/><path class="cls-3" d="M622.1,627.2H598.9V569.5H622v57.7Z"/><path class="cls-3" d="M658.6,625.3H562.5v3.8h96.1Z"/><path class="cls-3" d="M643.4,598.4H577.5v3.7h65.9Z"/><path class="cls-3" d="M628.9,582.1h-38V585h38Z"/><path class="cls-4" d="M588.2,606.4h-2.9v16h2.9Z"/><path class="cls-4" d="M596.2,606.4h-2.9v16h2.9Z"/><path class="cls-4" d="M604.1,606.4h-2.9v16h2.9Z"/><path class="cls-4" d="M612,606.4h-2.9v16H612Z"/><path class="cls-4" d="M619.9,606.4H617v16h2.9Z"/><path class="cls-4" d="M627.8,606.4h-2.9v16h2.9Z"/><path class="cls-4" d="M635.7,606.4h-2.9v16h2.9Z"/><path class="cls-3" d="M579.7,640.7h-6.9v19h6.9Z"/><path class="cls-4" d="M593.4,640.7h-6.9v19h6.9Z"/><path class="cls-3" d="M607,640.7h-6.9v19H607Z"/><path class="cls-3" d="M620.7,640.7h-6.9v19h6.9Z"/><path class="cls-3" d="M634.4,640.7h-6.9v19h6.9Z"/><path class="cls-3" d="M648.1,640.7h-6.9v19h6.9Z"/><path class="cls-3" d="M579.7,670.4h-6.9v19h6.9Z"/><path class="cls-3" d="M593.4,670.4h-6.9v19h6.9Z"/><path class="cls-3" d="M607,670.4h-6.9v19H607Z"/><path class="cls-4" d="M620.7,670.4h-6.9v19h6.9Z"/><path class="cls-3" d="M634.4,670.4h-6.9v19h6.9Z"/><path class="cls-3" d="M648.1,670.4h-6.9v19h6.9Z"/><path class="cls-3" d="M579.7,699.9h-6.9v19h6.9Z"/><path class="cls-3" d="M593.4,699.9h-6.9v19h6.9Z"/><path class="cls-3" d="M607,699.9h-6.9v19H607Z"/><path class="cls-3" d="M620.7,699.9h-6.9v19h6.9Z"/><path class="cls-4" d="M634.4,699.9h-6.9v19h6.9Z"/><path class="cls-4" d="M648.1,699.9h-6.9v19h6.9Z"/><path class="cls-4" d="M579.7,729.5h-6.9v19h6.9Z"/><path class="cls-3" d="M593.4,729.5h-6.9v19h6.9Z"/><path class="cls-3" d="M607,729.5h-6.9v19H607Z"/><path class="cls-3" d="M620.7,729.5h-6.9v19h6.9Z"/><path class="cls-3" d="M634.4,729.5h-6.9v19h6.9Z"/><path class="cls-3" d="M648.1,729.5h-6.9v19h6.9Z"/><path class="cls-3" d="M579.7,759h-6.9v19h6.9Z"/><path class="cls-4" d="M593.4,759h-6.9v19h6.9Z"/><path class="cls-3" d="M607,759h-6.9v19H607Z"/><path class="cls-4" d="M620.7,759h-6.9v19h6.9Z"/><path class="cls-3" d="M634.4,759h-6.9v19h6.9Z"/><path class="cls-3" d="M648.1,759h-6.9v19h6.9Z"/><path class="cls-3" d="M579.7,788.7h-6.9v18.9h6.9Z"/><path class="cls-3" d="M593.4,788.7h-6.9v18.9h6.9Z"/><path class="cls-3" d="M607,788.7h-6.9v18.9H607Z"/><path class="cls-3" d="M620.7,788.7h-6.9v18.9h6.9Z"/><path class="cls-3" d="M634.4,788.7h-6.9v18.9h6.9Z"/><path class="cls-4" d="M648.1,788.7h-6.9v18.9h6.9Z"/><path class="cls-3" d="M579.7,818.2h-6.9v19h6.9Z"/><path class="cls-4" d="M593.4,818.2h-6.9v19h6.9Z"/><path class="cls-4" d="M607,818.2h-6.9v19H607Z"/><path class="cls-3" d="M620.7,818.2h-6.9v19h6.9Z"/><path class="cls-3" d="M634.4,818.2h-6.9v19h6.9Z"/><path class="cls-3" d="M648.1,818.2h-6.9v19h6.9Z"/><path class="cls-3" d="M579.7,847.8h-6.9v19h6.9Z"/><path class="cls-3" d="M593.4,847.8h-6.9v19h6.9Z"/><path class="cls-3" d="M607,847.8h-6.9v19H607Z"/><path class="cls-3" d="M620.7,847.8h-6.9v19h6.9Z"/><path class="cls-4" d="M634.4,847.8h-6.9v19h6.9Z"/><path class="cls-3" d="M648.1,847.8h-6.9v19h6.9Z"/><path class="cls-3" d="M579.7,877.3h-6.9v19h6.9Z"/><path class="cls-4" d="M593.4,877.3h-6.9v19h6.9Z"/><path class="cls-3" d="M607,877.3h-6.9v19H607Z"/><path class="cls-3" d="M620.7,877.3h-6.9v19h6.9Z"/><path class="cls-3" d="M634.4,877.3h-6.9v19h6.9Z"/><path class="cls-3" d="M648.1,877.3h-6.9v19h6.9Z"/><path class="cls-3" d="M579.7,907h-6.9v19h6.9Z"/><path class="cls-3" d="M593.4,907h-6.9v19h6.9Z"/><path class="cls-3" d="M607,907h-6.9v19H607Z"/><path class="cls-4" d="M620.7,907h-6.9v19h6.9Z"/><path class="cls-3" d="M634.4,907h-6.9v19h6.9Z"/><path class="cls-4" d="M648.1,907h-6.9v19h6.9Z"/><path class="cls-4" d="M579.7,936.5h-6.9v19h6.9Z"/><path class="cls-3" d="M593.4,936.5h-6.9v19h6.9Z"/><path class="cls-4" d="M607,936.5h-6.9v19H607Z"/><path class="cls-3" d="M620.7,936.5h-6.9v19h6.9Z"/><path class="cls-3" d="M634.4,936.5h-6.9v19h6.9Z"/><path class="cls-3" d="M648.1,936.5h-6.9v19h6.9Z"/><path class="cls-3" d="M446.5,640.1H299.8v306H446.4v-306Z"/><path class="cls-3" d="M450.6,634.8h-155v8.6h155Z"/><path class="cls-3" d="M441.6,623.8H304.8v41.1H441.6V623.8Z"/><path class="cls-3" d="M369.4,606.9H315.2v44.9h54.2Z"/><path class="cls-3" d="M346.6,619.6H315.2V596h22.5Z"/><path class="cls-3" d="M330.9,576.3h-3V629h3Z"/><path class="cls-3" d="M329.4,576.3a2.7,2.7,0,1,0-2.7-2.7A2.69,2.69,0,0,0,329.4,576.3Z"/><path class="cls-3" d="M1661.2,969.4H1500.6l-20-449.9,180.6,37.6Z"/><path class="cls-3" d="M960.6,712.4V562.1H935.5V521.8h-9v-59H877V419.3h-4.4v43.4H863V408.3h-4.4v54.4H827v99.4H810.8V712.5H797V986.4H970.4v-274Z"/><path class="cls-3" d="M2013.3,963.8H94.8v45.6H2013.3Z"/><path class="cls-3" d="M1224.1,998.3h-85l33.1-170.1h51.9Z"/><path class="cls-5" d="M2040.3,1004.9H26v131.9H2040.3Z"/><path class="cls-3" d="M1154.5,683.4V608h-27.3V579.3h-14.6V555.2h-5.1V513.8h-1.3v41.4h-5.1v24.1h-14.6V608h-27v75.4h-5.7V820.3h-42V976.2H1160V683.4Z"/><path class="cls-3" d="M1311.2,770h-132v2.4h6V995.6h120V772.4h6Z"/><path class="cls-5" d="M709.2,825.6h-117v185.9H709.3V825.6Z"/><path class="cls-5" d="M574.5,920.9H373.2v90.7H574.5Z"/><path class="cls-5" d="M525.2,718.3H481V941h44.2Z"/><path class="cls-5" d="M511.5,704.5h-27v29.8h27Z"/><path class="cls-5" d="M643.5,858.9H566.6v152.6h76.9Z"/><path class="cls-5" d="M872.6,697.3H728.2v314.2H872.6Z"/><path class="cls-5" d="M858.4,686.5h-116v52.3h116Z"/><path class="cls-5" d="M883.7,703.9H717v3.7H883.7Z"/><path class="cls-5" d="M770.1,852.9H702v158.7h68.1Z"/><path class="cls-3" d="M292.8,846.8H214.7v164.7h78.1Z"/><path class="cls-5" d="M395.5,802.1H240v209.5H395.5Z"/><path class="cls-5" d="M399.5,794.1H230.9v8H399.5Z"/><path class="cls-5" d="M315.2,772.2H246.9v42.5h68.3Z"/><path class="cls-5" d="M349,772.2H337.5V798H349Z"/><path class="cls-5" d="M373.2,772.2H360.6V798h12.6Z"/><path class="cls-3" d="M253.8,947.9H172.3v63.7h81.5Z"/><path class="cls-3" d="M180.1,920.9H141.5v90.7h38.6Z"/><path class="cls-3" d="M160.8,979.7h-66v31.8h66Z"/><path class="cls-5" d="M1671.1,941H858.3v70.6h812.8Z"/><path class="cls-3" d="M1755.3,827.7H1629.8v183.9h125.5Z"/><path class="cls-3" d="M1862.5,899.2H1737v111.4h125.5Z"/><path class="cls-6" d="M1320.6,882.8h-70.4v93.4h70.4Z"/><path class="cls-3" d="M1781.3,652.8h-88.8v358.8h88.8Z"/><path class="cls-7" d="M1749.7,704.4a2.33,2.33,0,1,0-4.6,0,2.5,2.5,0,0,0,2.3,2.7A2.71,2.71,0,0,0,1749.7,704.4Z"/><path class="cls-8" d="M1999.4,1036.2,1985.2,941h-29V862h3.6v-7.1h-14.1V824.2H1944v30.7h-9.7V829.8h-1.7v25.1h-58.8V862h4v160.2h-67.1V950.4h-38.2V774.2h3.5v-8.7h-7.7v-11h-8.8V726.6h-10.6V707h-2.5v19.6h-5.7l-3.5,11h-23.1v16.9h-60.6v11h-7.6v8.7h3.5V888.9h-50.7v112.7l-56.2-24.9V867.3h9.1v-8h-16V837.5h-68.3v21.8H1445V837.5h-11.5v21.8H1422V837.5h-12.7v21.8H1383v8h4v151.6h-25.6v-1.6h-4.7V974.1h4.7v-3.5h-4.7V927.4h4.7v-3.5h-4.7V880.7h4.7v-3.4h-4.7V834.1h4.7v-3.5h-4.7V787.4h4.7V784h-4.7V739.3h8v-3.5h4v-9.5h-75.5V715.7h2.4v-3h-41.1v3h2.4v10.6h-18.7v9.5h4.1v3.5h7.9V784h-4.6v3.5h4.6v43.2h-4.6v3.5h4.6v43.2h-4.6v3.4h4.6V924h-4.6v3.5h4.6v43.2h-4.6v3.5h4.6v43.2h-4.6v3.5h4.6v35.3h-25.7V919.7H1120.8v99.2h-16.9V709.7h-12.4v8l-23,5.6v-5.1h-12.4v8.2l-23,5.7v-5.9h-12.5v9l-23,5.7v-5H985.2v8l-23,5.6v-4.2H949.8v303.6H932.2V886.8H867.3v99.5H800.8V901.5h-8.2V873.6h4.9v-2.8H775.9V862h-2.3v8.8h-7V825.9h-1.7v44.9h-9v2.8h5.3v27.9H717v64.8H674.2l-22.3,82.4H607.1V779.5H547.7v-9.6h3.4v-3.3H506.2v3.3h3.6V979.4h-28V909.8h9.9v-6.3H421.4V861.4H407.9v-8.7H378v8.7H353.6v150.3h-80V900.1H206.2v88.1H147.7v56.3H105.6V973.6H50.2V1034H0v102.7H2068.1V1036.1h-68.7Z"/><g class="cls-9"><path class="cls-10" d="M365.7,872.2h-5.1v5.1h5.1Z"/><path class="cls-10" d="M376,872.2h-5.1v5.1H376Z"/><path class="cls-10" d="M365.7,884.3h-5.1v5.1h5.1Z"/><path class="cls-10" d="M376,884.3h-5.1v5.1H376Z"/><path class="cls-10" d="M365.7,895.9h-5.1V901h5.1Z"/><path class="cls-10" d="M387.4,872.2h-5.1v5.1h5.1Z"/></g><path class="cls-11" d="M739.5,718.2H736v19.4h3.5Z"/><path class="cls-11" d="M751.6,718.2h-3.5v19.4h3.5Z"/><path class="cls-11" d="M763.6,718.2h-3.5v19.4h3.5Z"/><path class="cls-11" d="M775.7,718.2h-3.5v19.4h3.5Z"/><path class="cls-11" d="M787.7,718.2h-3.5v19.4h3.5Z"/><path class="cls-11" d="M799.8,718.2h-3.5v19.4h3.5Z"/><path class="cls-11" d="M811.8,718.2h-3.5v19.4h3.5Z"/><path class="cls-11" d="M823.9,718.2h-3.5v19.4h3.5Z"/><path class="cls-11" d="M836,718.2h-3.5v19.4H836Z"/><path class="cls-11" d="M848,718.2h-3.5v19.4H848Z"/><path class="cls-11" d="M860.1,718.2h-3.5v19.4h3.5Z"/><path class="cls-11" d="M739.5,745.1H736v19.4h3.5Z"/><path class="cls-11" d="M751.6,745.1h-3.5v19.4h3.5Z"/><path class="cls-11" d="M763.6,745.1h-3.5v19.4h3.5Z"/><path class="cls-11" d="M775.7,745.1h-3.5v19.4h3.5Z"/><path class="cls-11" d="M787.7,745.1h-3.5v19.4h3.5Z"/><path class="cls-11" d="M799.8,745.1h-3.5v19.4h3.5Z"/><path class="cls-11" d="M811.8,745.1h-3.5v19.4h3.5Z"/><path class="cls-11" d="M823.9,745.1h-3.5v19.4h3.5Z"/><path class="cls-11" d="M836,745.1h-3.5v19.4H836Z"/><path class="cls-11" d="M848,745.1h-3.5v19.4H848Z"/><path class="cls-11" d="M860.1,745.1h-3.5v19.4h3.5Z"/><path class="cls-11" d="M739.5,772.1H736v19.4h3.5Z"/><path class="cls-11" d="M751.6,772.1h-3.5v19.4h3.5Z"/><path class="cls-11" d="M763.6,772.1h-3.5v19.4h3.5Z"/><path class="cls-11" d="M775.7,772.1h-3.5v19.4h3.5Z"/><path class="cls-11" d="M787.7,772.1h-3.5v19.4h3.5Z"/><path class="cls-11" d="M799.8,772.1h-3.5v19.4h3.5Z"/><path class="cls-11" d="M811.8,772.1h-3.5v19.4h3.5Z"/><path class="cls-11" d="M823.9,772.1h-3.5v19.4h3.5Z"/><path class="cls-11" d="M836,772.1h-3.5v19.4H836Z"/><path class="cls-11" d="M848,772.1h-3.5v19.4H848Z"/><path class="cls-11" d="M860.1,772.1h-3.5v19.4h3.5Z"/><path class="cls-11" d="M775.7,799h-3.5v19.4h3.5Z"/><path class="cls-11" d="M787.7,799h-3.5v19.4h3.5Z"/><path class="cls-11" d="M799.8,799h-3.5v19.4h3.5Z"/><path class="cls-11" d="M811.8,799h-3.5v19.4h3.5Z"/><path class="cls-11" d="M823.9,799h-3.5v19.4h3.5Z"/><path class="cls-11" d="M836,799h-3.5v19.4H836Z"/><path class="cls-11" d="M848,799h-3.5v19.4H848Z"/><path class="cls-11" d="M860.1,799h-3.5v19.4h3.5Z"/><path class="cls-11" d="M787.7,827.5h-3.5v19.4h3.5Z"/><path class="cls-11" d="M799.8,827.5h-3.5v19.4h3.5Z"/><path class="cls-11" d="M811.8,827.5h-3.5v19.4h3.5Z"/><path class="cls-11" d="M823.9,827.5h-3.5v19.4h3.5Z"/><path class="cls-11" d="M836,827.5h-3.5v19.4H836Z"/><path class="cls-11" d="M848,827.5h-3.5v19.4H848Z"/><path class="cls-11" d="M860.1,827.5h-3.5v19.4h3.5Z"/><path class="cls-12" d="M977.4,766.2h-8.3v21h8.3Z"/><path class="cls-12" d="M977.4,806.3h-8.3v20.9h8.3Z"/><path class="cls-12" d="M977.4,846.4h-8.3v20.9h8.3Z"/><path class="cls-12" d="M977.4,886.6h-8.3v20.9h8.3Z"/><path class="cls-12" d="M977.4,924.4h-8.3v21h8.3Z"/><path class="cls-12" d="M977.4,964.4h-8.3v21h8.3Z"/><path class="cls-12" d="M1012.8,766.2h-8.3v21h8.3Z"/><path class="cls-12" d="M1012.8,806.3h-8.3v20.9h8.3Z"/><path class="cls-12" d="M1012.8,846.4h-8.3v20.9h8.3Z"/><path class="cls-12" d="M1012.8,886.6h-8.3v20.9h8.3Z"/><path class="cls-12" d="M1012.8,924.4h-8.3v21h8.3Z"/><path class="cls-12" d="M1012.8,964.4h-8.3v21h8.3Z"/><path class="cls-12" d="M1048.3,766.2H1040v21h8.3Z"/><path class="cls-12" d="M1048.3,806.3H1040v20.9h8.3Z"/><path class="cls-12" d="M1048.3,846.4H1040v20.9h8.3Z"/><path class="cls-12" d="M1048.3,886.6H1040v20.9h8.3Z"/><path class="cls-12" d="M1048.3,924.4H1040v21h8.3Z"/><path class="cls-12" d="M1048.3,964.4H1040v21h8.3Z"/><path class="cls-12" d="M1083.7,766.2h-8.3v21h8.3Z"/><path class="cls-12" d="M1083.7,806.3h-8.3v20.9h8.3Z"/><path class="cls-12" d="M1083.7,846.4h-8.3v20.9h8.3Z"/><path class="cls-12" d="M1083.7,886.6h-8.3v20.9h8.3Z"/><path class="cls-12" d="M1083.7,924.4h-8.3v21h8.3Z"/><path class="cls-12" d="M1083.7,964.4h-8.3v21h8.3Z"/><path class="cls-11" d="M842.9,473.8H836v18.3h6.9Z"/><path class="cls-11" d="M859.8,473.8h-6.9v18.3h6.9Z"/><path class="cls-11" d="M876.8,473.8h-6.9v18.3h6.9Z"/><path class="cls-11" d="M893.8,473.8h-6.9v18.3h6.9Z"/><path class="cls-11" d="M842.9,504.4H836v18.3h6.9Z"/><path class="cls-11" d="M859.8,504.4h-6.9v18.3h6.9Z"/><path class="cls-11" d="M876.8,504.4h-6.9v18.3h6.9Z"/><path class="cls-11" d="M893.8,504.4h-6.9v18.3h6.9Z"/><path class="cls-11" d="M842.9,534.9H836v18.3h6.9Z"/><path class="cls-11" d="M859.8,534.9h-6.9v18.3h6.9Z"/><path class="cls-11" d="M913,473.8h-6.9v18.3H913Z"/><path class="cls-13" d="M382.3,659.8H378v16.9h4.3Z"/><path class="cls-13" d="M397.7,659.8h-4.3v16.9h4.3Z"/><path class="cls-13" d="M415.8,659.8h-4.3v16.9h4.3Z"/><path class="cls-13" d="M431.2,659.8h-4.3v16.9h4.3Z"/><path class="cls-13" d="M348,659.8h-4.3v16.9H348Z"/><path class="cls-13" d="M363.4,659.8h-4.3v16.9h4.3Z"/><path class="cls-13" d="M382.3,689H378v16.9h4.3Z"/><path class="cls-13" d="M397.7,689h-4.3v16.9h4.3Z"/><path class="cls-13" d="M415.8,689h-4.3v16.9h4.3Z"/><path class="cls-13" d="M431.2,689h-4.3v16.9h4.3Z"/><path class="cls-13" d="M348,689h-4.3v16.9H348Z"/><path class="cls-13" d="M363.4,689h-4.3v16.9h4.3Z"/><path class="cls-13" d="M382.3,718.2H378V735h4.3Z"/><path class="cls-13" d="M397.7,718.2h-4.3V735h4.3Z"/><path class="cls-13" d="M415.8,718.2h-4.3V735h4.3Z"/><path class="cls-13" d="M431.2,718.2h-4.3V735h4.3Z"/><path class="cls-13" d="M348,718.2h-4.3V735H348Z"/><path class="cls-13" d="M363.4,718.2h-4.3V735h4.3Z"/><path class="cls-11" d="M1201,788.7h-6.8v26.1h6.8Z"/><path class="cls-11" d="M1221.8,788.7H1215v26.1h6.8Z"/><path class="cls-11" d="M1241.2,788.7h-6.8v26.1h6.8Z"/><path class="cls-12" d="M1666.3,794.1h-5.1v14.7h5.1Z"/><path class="cls-12" d="M1682.5,794.1h-5.1v14.7h5.1Z"/><path class="cls-12" d="M1666.3,794.1h-5.1v14.7h5.1Z"/><path class="cls-12" d="M1682.5,794.1h-5.1v14.7h5.1Z"/><path class="cls-12" d="M1697.7,794.1h-5.1v14.7h5.1Z"/><path class="cls-12" d="M1713.8,794.1h-5.1v14.7h5.1Z"/><path class="cls-12" d="M1666.3,820.4h-5.1v14.7h5.1Z"/><path class="cls-12" d="M1682.5,820.4h-5.1v14.7h5.1Z"/><path class="cls-12" d="M1666.3,820.4h-5.1v14.7h5.1Z"/><path class="cls-12" d="M1682.5,820.4h-5.1v14.7h5.1Z"/><path class="cls-12" d="M1697.7,820.4h-5.1v14.7h5.1Z"/><path class="cls-12" d="M1713.8,820.4h-5.1v14.7h5.1Z"/><path class="cls-12" d="M1666.3,848.4h-5.1v14.7h5.1Z"/><path class="cls-12" d="M1682.5,848.4h-5.1v14.7h5.1Z"/><path class="cls-12" d="M1666.3,848.4h-5.1v14.7h5.1Z"/><path class="cls-12" d="M1682.5,848.4h-5.1v14.7h5.1Z"/><path class="cls-12" d="M1697.7,848.4h-5.1v14.7h5.1Z"/><path class="cls-12" d="M1713.8,848.4h-5.1v14.7h5.1Z"/><path class="cls-12" d="M1731.4,794.1h-5.1v14.7h5.1Z"/><path class="cls-12" d="M1731.4,820.4h-5.1v14.7h5.1Z"/><path class="cls-12" d="M1747.6,794.1h-5.1v14.7h5.1Z"/><path class="cls-12" d="M1265,750.5h-5.6v22.9h5.6Z"/><path class="cls-12" d="M1292.5,750.5h-5.6v22.9h5.6Z"/><path class="cls-12" d="M1320,750.5h-5.6v22.9h5.6Z"/><path class="cls-12" d="M1347.5,750.5h-5.6v22.9h5.6Z"/><path class="cls-12" d="M1265,797.6h-5.6v22.9h5.6Z"/><path class="cls-12" d="M1292.5,797.6h-5.6v22.9h5.6Z"/><path class="cls-12" d="M1320,797.6h-5.6v22.9h5.6Z"/><path class="cls-12" d="M1347.5,797.6h-5.6v22.9h5.6Z"/><path class="cls-12" d="M1265,845.9h-5.6v22.9h5.6Z"/><path class="cls-12" d="M1292.5,845.9h-5.6v22.9h5.6Z"/><path class="cls-12" d="M1320,845.9h-5.6v22.9h5.6Z"/><path class="cls-12" d="M1347.5,845.9h-5.6v22.9h5.6Z"/><path class="cls-12" d="M1265,894.1h-5.6V917h5.6Z"/><path class="cls-12" d="M1292.5,894.1h-5.6V917h5.6Z"/><path class="cls-12" d="M1320,894.1h-5.6V917h5.6Z"/><path class="cls-12" d="M1347.5,894.1h-5.6V917h5.6Z"/><path class="cls-12" d="M1265,937.9h-5.6v22.9h5.6Z"/><path class="cls-12" d="M1292.5,937.9h-5.6v22.9h5.6Z"/><path class="cls-12" d="M1320,937.9h-5.6v22.9h5.6Z"/><path class="cls-12" d="M1265,986.8h-5.6v22.9h5.6Z"/><path class="cls-12" d="M1292.5,986.8h-5.6v22.9h5.6Z"/><path class="cls-12" d="M1320,986.8h-5.6v22.9h5.6Z"/><path class="cls-12" d="M1347.5,937.9h-5.6v22.9h5.6Z"/></g></svg>