<svg width="1920" height="1080" viewBox="0 0 1920 1080" fill="none" xmlns="http://www.w3.org/2000/svg">
<rect width="1920" height="1080" fill="#EDF6FD"/>
<path d="M1863 18C1854.17 18 1847 25.168 1847 34C1847 42.832 1854.17 50 1863 50C1871.83 50 1879 42.832 1879 34C1879 25.168 1871.83 18 1863 18ZM1863 22.8C1865.66 22.8 1867.8 24.944 1867.8 27.6C1867.8 30.256 1865.66 32.4 1863 32.4C1860.34 32.4 1858.2 30.256 1858.2 27.6C1858.2 24.944 1860.34 22.8 1863 22.8ZM1863 45.52C1859 45.52 1855.46 43.472 1853.4 40.368C1853.45 37.184 1859.8 35.44 1863 35.44C1866.18 35.44 1872.55 37.184 1872.6 40.368C1870.54 43.472 1867 45.52 1863 45.52Z" fill="white"/>
<path d="M1863 18C1854.17 18 1847 25.168 1847 34C1847 42.832 1854.17 50 1863 50C1871.83 50 1879 42.832 1879 34C1879 25.168 1871.83 18 1863 18ZM1863 22.8C1865.66 22.8 1867.8 24.944 1867.8 27.6C1867.8 30.256 1865.66 32.4 1863 32.4C1860.34 32.4 1858.2 30.256 1858.2 27.6C1858.2 24.944 1860.34 22.8 1863 22.8ZM1863 45.52C1859 45.52 1855.46 43.472 1853.4 40.368C1853.45 37.184 1859.8 35.44 1863 35.44C1866.18 35.44 1872.55 37.184 1872.6 40.368C1870.54 43.472 1867 45.52 1863 45.52Z" fill="white"/>
<g filter="url(#filter0_d)">
<path d="M172 169C172 165.686 174.686 163 178 163H1863C1866.31 163 1869 165.686 1869 169V910C1869 913.314 1866.31 916 1863 916H178C174.686 916 172 913.314 172 910V169Z" fill="url(#paint0_linear)"/>
</g>
<mask id="mask0" mask-type="alpha" maskUnits="userSpaceOnUse" x="172" y="256" width="1697" height="660">
<path d="M172 262C172 258.686 174.686 256 178 256H1863C1866.31 256 1869 258.686 1869 262V910C1869 913.314 1866.31 916 1863 916H178C174.686 916 172 913.314 172 910V262Z" fill="#0777F0"/>
</mask>
<g mask="url(#mask0)">
<path d="M803.99 534.812H735.827V806.034H803.99V534.812Z" fill="#00ACF7"/>
<path d="M792.824 515.336H746.928V629.329H792.824V515.336Z" fill="#00ACF7"/>
<path d="M782.632 503.002H757.185V566.231H782.632V503.002Z" fill="#00ACF7"/>
<path d="M778.542 535.526H761.21V492.422H767.442H773.674H778.542V535.526Z" fill="#00ACF7"/>
<path d="M805.807 534.098H734.01V536.954H805.807V534.098Z" fill="#00ACF7"/>
<path d="M794.447 513.975H745.24V516.766H794.447V513.975Z" fill="#00ACF7"/>
<path d="M783.671 501.834H755.302V503.976H783.671V501.834Z" fill="#00ACF7"/>
<path opacity="0.29" d="M753.29 519.947H751.148V531.892H753.29V519.947Z" fill="#00ACF7"/>
<path opacity="0.29" d="M759.197 519.947H757.055V531.892H759.197V519.947Z" fill="#00ACF7"/>
<path opacity="0.29" d="M765.105 519.947H762.963V531.892H765.105V519.947Z" fill="#00ACF7"/>
<path opacity="0.29" d="M771.012 519.947H768.87V531.892H771.012V519.947Z" fill="#00ACF7"/>
<path opacity="0.29" d="M776.919 519.947H774.777V531.892H776.919V519.947Z" fill="#00ACF7"/>
<path opacity="0.29" d="M782.827 519.947H780.685V531.892H782.827V519.947Z" fill="#00ACF7"/>
<path opacity="0.29" d="M788.734 519.947H786.592V531.892H788.734V519.947Z" fill="#00ACF7"/>
<path d="M746.928 545.588H741.8V559.74H746.928V545.588Z" fill="#00ACF7"/>
<path opacity="0.29" d="M757.12 545.588H751.992V559.74H757.12V545.588Z" fill="#00ACF7"/>
<path d="M767.312 545.588H762.183V559.74H767.312V545.588Z" fill="#00ACF7"/>
<path d="M777.504 545.588H772.375V559.74H777.504V545.588Z" fill="#00ACF7"/>
<path d="M787.76 545.588H782.632V559.74H787.76V545.588Z" fill="#00ACF7"/>
<path d="M797.953 545.588H792.824V559.74H797.953V545.588Z" fill="#00ACF7"/>
<path d="M746.928 567.725H741.8V581.876H746.928V567.725Z" fill="#00ACF7"/>
<path d="M757.12 567.725H751.992V581.876H757.12V567.725Z" fill="#00ACF7"/>
<path d="M767.312 567.725H762.183V581.876H767.312V567.725Z" fill="#00ACF7"/>
<path opacity="0.29" d="M777.504 567.725H772.375V581.876H777.504V567.725Z" fill="#00ACF7"/>
<path d="M787.76 567.725H782.632V581.876H787.76V567.725Z" fill="#00ACF7"/>
<path d="M797.953 567.725H792.824V581.876H797.953V567.725Z" fill="#00ACF7"/>
<path d="M746.928 589.797H741.8V603.949H746.928V589.797Z" fill="#00ACF7"/>
<path d="M757.12 589.797H751.992V603.949H757.12V589.797Z" fill="#00ACF7"/>
<path d="M767.312 589.797H762.183V603.949H767.312V589.797Z" fill="#00ACF7"/>
<path d="M777.504 589.797H772.375V603.949H777.504V589.797Z" fill="#00ACF7"/>
<path opacity="0.29" d="M787.76 589.797H782.632V603.949H787.76V589.797Z" fill="#00ACF7"/>
<path opacity="0.29" d="M797.953 589.797H792.824V603.949H797.953V589.797Z" fill="#00ACF7"/>
<path opacity="0.29" d="M746.928 611.869H741.8V626.021H746.928V611.869Z" fill="#00ACF7"/>
<path d="M757.12 611.869H751.992V626.021H757.12V611.869Z" fill="#00ACF7"/>
<path d="M767.312 611.869H762.183V626.021H767.312V611.869Z" fill="#00ACF7"/>
<path d="M777.504 611.869H772.375V626.021H777.504V611.869Z" fill="#00ACF7"/>
<path d="M787.76 611.869H782.632V626.021H787.76V611.869Z" fill="#00ACF7"/>
<path d="M797.953 611.869H792.824V626.021H797.953V611.869Z" fill="#00ACF7"/>
<path d="M746.928 633.939H741.8V648.091H746.928V633.939Z" fill="#00ACF7"/>
<path opacity="0.29" d="M757.12 633.939H751.992V648.091H757.12V633.939Z" fill="#00ACF7"/>
<path d="M767.312 633.939H762.183V648.091H767.312V633.939Z" fill="#00ACF7"/>
<path opacity="0.29" d="M777.504 633.939H772.375V648.091H777.504V633.939Z" fill="#00ACF7"/>
<path d="M787.76 633.939H782.632V648.091H787.76V633.939Z" fill="#00ACF7"/>
<path d="M797.953 633.939H792.824V648.091H797.953V633.939Z" fill="#00ACF7"/>
<path d="M746.928 656.076H741.8V670.228H746.928V656.076Z" fill="#00ACF7"/>
<path d="M757.12 656.076H751.992V670.228H757.12V656.076Z" fill="#00ACF7"/>
<path d="M767.312 656.076H762.183V670.228H767.312V656.076Z" fill="#00ACF7"/>
<path d="M777.504 656.076H772.375V670.228H777.504V656.076Z" fill="#00ACF7"/>
<path d="M787.76 656.076H782.632V670.228H787.76V656.076Z" fill="#00ACF7"/>
<path opacity="0.29" d="M797.953 656.076H792.824V670.228H797.953V656.076Z" fill="#00ACF7"/>
<path d="M746.928 678.148H741.8V692.3H746.928V678.148Z" fill="#00ACF7"/>
<path opacity="0.29" d="M757.12 678.148H751.992V692.3H757.12V678.148Z" fill="#00ACF7"/>
<path opacity="0.29" d="M767.312 678.148H762.183V692.3H767.312V678.148Z" fill="#00ACF7"/>
<path d="M777.504 678.148H772.375V692.3H777.504V678.148Z" fill="#00ACF7"/>
<path d="M787.76 678.148H782.632V692.3H787.76V678.148Z" fill="#00ACF7"/>
<path d="M797.953 678.148H792.824V692.3H797.953V678.148Z" fill="#00ACF7"/>
<path d="M746.928 700.219H741.8V714.371H746.928V700.219Z" fill="#00ACF7"/>
<path d="M757.12 700.219H751.992V714.371H757.12V700.219Z" fill="#00ACF7"/>
<path d="M767.312 700.219H762.183V714.371H767.312V700.219Z" fill="#00ACF7"/>
<path d="M777.504 700.219H772.375V714.371H777.504V700.219Z" fill="#00ACF7"/>
<path opacity="0.29" d="M787.76 700.219H782.632V714.371H787.76V700.219Z" fill="#00ACF7"/>
<path d="M797.953 700.219H792.824V714.371H797.953V700.219Z" fill="#00ACF7"/>
<path d="M746.928 722.291H741.8V736.443H746.928V722.291Z" fill="#00ACF7"/>
<path opacity="0.29" d="M757.12 722.291H751.992V736.443H757.12V722.291Z" fill="#00ACF7"/>
<path d="M767.312 722.291H762.183V736.443H767.312V722.291Z" fill="#00ACF7"/>
<path d="M777.504 722.291H772.375V736.443H777.504V722.291Z" fill="#00ACF7"/>
<path d="M787.76 722.291H782.632V736.443H787.76V722.291Z" fill="#00ACF7"/>
<path d="M797.953 722.291H792.824V736.443H797.953V722.291Z" fill="#00ACF7"/>
<path d="M746.928 744.428H741.8V758.58H746.928V744.428Z" fill="#00ACF7"/>
<path d="M757.12 744.428H751.992V758.58H757.12V744.428Z" fill="#00ACF7"/>
<path d="M767.312 744.428H762.183V758.58H767.312V744.428Z" fill="#00ACF7"/>
<path opacity="0.29" d="M777.504 744.428H772.375V758.58H777.504V744.428Z" fill="#00ACF7"/>
<path d="M787.76 744.428H782.632V758.58H787.76V744.428Z" fill="#00ACF7"/>
<path opacity="0.29" d="M797.953 744.428H792.824V758.58H797.953V744.428Z" fill="#00ACF7"/>
<path opacity="0.29" d="M746.928 766.498H741.8V780.65H746.928V766.498Z" fill="#00ACF7"/>
<path d="M757.12 766.498H751.992V780.65H757.12V766.498Z" fill="#00ACF7"/>
<path opacity="0.29" d="M767.312 766.498H762.183V780.65H767.312V766.498Z" fill="#00ACF7"/>
<path d="M777.504 766.498H772.375V780.65H777.504V766.498Z" fill="#00ACF7"/>
<path d="M787.76 766.498H782.632V780.65H787.76V766.498Z" fill="#00ACF7"/>
<path d="M797.953 766.498H792.824V780.65H797.953V766.498Z" fill="#00ACF7"/>
<path d="M647.411 545.133H537.897V773.639H647.411V545.133Z" fill="#00ACF7"/>
<path d="M650.527 541.172H534.781V547.599H650.527V541.172Z" fill="#00ACF7"/>
<path d="M643.776 532.928H541.597V563.633H643.776V532.928Z" fill="#00ACF7"/>
<path d="M589.83 520.334H549.387V553.896H589.83V520.334Z" fill="#00ACF7"/>
<path d="M572.822 529.814H549.387V512.156H566.201L572.822 529.814Z" fill="#00ACF7"/>
<path d="M561.137 497.482H558.865V536.822H561.137V497.482Z" fill="#00ACF7"/>
<path d="M559.969 497.484C561.08 497.484 561.981 496.583 561.981 495.471C561.981 494.36 561.08 493.459 559.969 493.459C558.857 493.459 557.956 494.36 557.956 495.471C557.956 496.583 558.857 497.484 559.969 497.484Z" fill="#00ACF7"/>
<path d="M1031.39 599.143V486.837H1012.63V456.716H1005.88V412.638H968.877V380.179H965.567V396.409V412.638H958.361V372H955.05V412.638H931.615V486.837H919.541V599.143H909.219V803.695H1038.73V599.143H1031.39Z" fill="#10A4E3"/>
<path d="M1817.53 786.816H384.824V820.898H1817.53V786.816Z" fill="#B5C3C2"/>
<path d="M1228.15 812.588H1164.67L1189.4 685.547H1228.15V812.588Z" fill="#10A4E3"/>
<path d="M1837.65 817.521H333.41V916H1837.65V817.521Z" fill="#0188C2"/>
<path d="M1176.16 577.46V521.178H1155.77V499.755H1144.87V481.773H1141.04V450.873H1140.06V481.773H1136.23V499.755H1125.33V521.178H1105.14V577.46H1100.92V679.704H1069.56V796.164H1100.92H1132.27H1180.18V577.46H1176.16Z" fill="#10A4E3"/>
<path d="M1293.2 642.117H1194.59V643.935H1199.07V810.64H1288.72V643.935H1293.2V642.117Z" fill="#10A4E3"/>
<path d="M843.653 683.664H756.21V822.52H843.653V683.664Z" fill="#0188C2"/>
<path d="M743.033 754.811H592.686V822.518H743.033V754.811Z" fill="#0188C2"/>
<path d="M706.225 603.492H673.247V769.808H706.225V603.492Z" fill="#0188C2"/>
<path d="M695.968 593.236H675.779V615.503H695.968V593.236Z" fill="#0188C2"/>
<path d="M794.576 708.527H737.125V822.521H794.576V708.527Z" fill="#0188C2"/>
<path d="M965.631 587.848H857.805V822.521H965.631V587.848Z" fill="#0188C2"/>
<path d="M955.05 579.797H868.386V618.877H955.05V579.797Z" fill="#0188C2"/>
<path d="M973.94 592.779H849.431V595.506H973.94V592.779Z" fill="#0188C2"/>
<path d="M889.094 704.047H838.265V822.584H889.094V704.047Z" fill="#0188C2"/>
<path d="M532.638 699.504H474.343V822.521H532.638V699.504Z" fill="#95A9A7"/>
<path d="M609.37 666.072H493.234V822.521H609.37V666.072Z" fill="#0188C2"/>
<path d="M612.356 660.098H486.418V666.07H612.356V660.098Z" fill="#0188C2"/>
<path d="M549.387 643.805H498.363V675.549H549.387V643.805Z" fill="#0188C2"/>
<path d="M574.64 643.805H566.071V663.085H574.64V643.805Z" fill="#0188C2"/>
<path d="M592.687 643.805H583.274V663.085H592.687V643.805Z" fill="#0188C2"/>
<path d="M503.556 775.002H442.664V822.586H503.556V775.002Z" fill="#95A9A7"/>
<path d="M448.507 754.811H419.684V822.518H448.507V754.811Z" fill="#95A9A7"/>
<path d="M434.095 798.76H384.824V822.519H434.095V798.76Z" fill="#95A9A7"/>
<path d="M1561.95 769.809H954.985V822.521H1561.95V769.809Z" fill="#0188C2"/>
<path d="M1624.86 685.221H1531.12V822.584H1624.86V685.221Z" fill="#95A9A7"/>
<path d="M1704.9 738.582H1611.16V821.74H1704.9V738.582Z" fill="#95A9A7"/>
<path d="M1300.21 726.379H1247.63V796.164H1300.21V726.379Z" fill="#95A9A7"/>
<path d="M1644.27 554.609H1577.99V822.52H1644.27V554.609Z" fill="#10A4E3"/>
<path d="M1753.46 822.584H1666.02V666.07H1732.29L1753.46 822.584Z" fill="#95A9A7"/>
<path d="M1791.76 786.816H1715.16V822.52H1791.76V786.816Z" fill="#95A9A7"/>
<path d="M1629.4 498.65H1627.13V571.487H1629.4V498.65Z" fill="#95A9A7"/>
<path d="M1637.13 514.297H1634.86V587.133H1637.13V514.297Z" fill="#95A9A7"/>
<path d="M1622.39 524.293H1620.12V597.129H1622.39V524.293Z" fill="#95A9A7"/>
<path d="M1700.75 653.477H1669.46V678.145H1700.75V653.477Z" fill="#95A9A7"/>
<path d="M1697.24 644.648H1672.83V658.476H1697.24V644.648Z" fill="#95A9A7"/>
<path d="M1719.12 660.682H1713.14V670.614H1719.12V660.682Z" fill="#95A9A7"/>
<path d="M1729.83 651.594H1721.26V670.614H1729.83V651.594Z" fill="#95A9A7"/>
<path d="M1620.64 593.106C1620.64 592.003 1619.86 591.094 1618.95 591.094C1618.04 591.094 1617.26 592.003 1617.26 593.106C1617.26 594.21 1618.04 595.119 1618.95 595.119C1619.86 595.119 1620.64 594.21 1620.64 593.106Z" fill="#658280"/>
<path d="M1807.14 840.891L1796.5 769.807H1774.82V710.863H1777.48V705.54H1766.96V682.625H1765.66V705.54H1758.39V686.779H1757.09V705.54H1713.14V710.863H1716.13V830.504H1666.02V776.883H1637.45V645.298H1640.05V638.806H1634.34V630.562H1627.78V627.446V617.968V609.788H1619.86V595.117H1618.89H1617.98V609.788H1613.69L1611.1 617.968H1593.83V630.562H1548.58V638.806H1542.87V645.298H1545.47V730.922H1507.62V815.054L1465.62 796.488V714.758H1472.43V708.786H1460.49V692.492H1409.47V708.786H1392.78V692.492H1384.21V708.786H1375.64V692.492H1366.17V708.786H1346.5V714.758H1349.48V827.973H1330.33V826.804H1326.83V794.541H1330.33V791.944H1326.83V759.68H1330.33V757.084H1326.83V724.82H1330.33V722.289H1326.83V690.025H1330.33V687.428H1326.83V655.165H1330.33V652.568H1326.83V619.201H1332.8V616.605H1335.79V609.529H1279.44V601.609H1281.26V599.337H1250.55V601.609H1252.37V609.529H1238.41V616.605H1241.46V619.201H1247.37V652.568H1243.93V655.165H1247.37V687.428H1243.93V690.025H1247.37V722.289H1243.93V724.82H1247.37V757.084H1243.93V759.68H1247.37V791.944H1243.93V794.541H1247.37V826.804H1243.93V829.401H1247.37V855.757H1228.15V753.903H1150.71V827.973H1138.11V597.13H1128.83V603.102L1111.63 607.257V603.427H1102.35V609.529L1085.21 613.748V609.334H1075.86V616.02L1058.72 620.24V616.54H1049.44V622.512L1032.24 626.667V623.551H1022.95V850.239H1009.84V729.364H961.347V803.694H911.686V740.335H905.584V719.497H909.219V717.42H893.12V710.863H891.432V717.42H886.239V683.858H884.94V717.42H878.254V719.497H882.214V740.335H849.431V788.698H817.492L800.809 850.239H767.377V649.193H723.039V641.987H725.57V639.52H692.009V641.987H694.67V649.193V660.813V798.501H673.767V746.502H681.168V741.764H628.65V710.344H618.588V703.852H596.257V710.344H578.015V822.585H518.292V739.297H467.982V805.057H424.293V847.123H392.874V794.216H351.457V839.333H314V915.999H351.457H364.116H384.824H392.874H424.293H467.982H482.653H490.508H518.292H578.015H596.257H618.588H628.65H667.86H673.767H694.67H729.66H746.928H767.377H849.431H868.387H900.39H911.686H962.256H975.823H1022.95H1027.56H1032.24H1049.44H1058.72H1075.86H1083.65H1085.21H1102.35H1111.63H1126.43H1128.83H1133.44H1138.11H1150.71H1214.72H1223.87H1228.15H1247.37H1281.26H1312.29H1326.83H1349.48H1405.64H1465.03H1465.62H1507.62H1531.12H1545.47H1554.55H1624.86H1637.45H1652.51H1666.02H1716.13H1753.46H1761.05H1774.82H1858.23V840.891H1807.14Z" fill="#01648E"/>
<g opacity="0.52">
<path opacity="0.52" d="M587.104 718.461H583.274V722.291H587.104V718.461Z" fill="white"/>
<path opacity="0.52" d="M594.763 718.459H590.933V722.289H594.763V718.459Z" fill="white"/>
<path opacity="0.52" d="M587.104 727.482H583.273V731.313H587.104V727.482Z" fill="white"/>
<path opacity="0.52" d="M594.763 727.482H590.933V731.313H594.763V727.482Z" fill="white"/>
<path opacity="0.52" d="M587.104 736.182H583.273V740.012H587.104V736.182Z" fill="white"/>
<path opacity="0.52" d="M603.333 718.459H599.502V722.289H603.333V718.459Z" fill="white"/>
</g>
<path opacity="0.5" d="M866.244 603.428H863.647V617.904H866.244V603.428Z" fill="white"/>
<path opacity="0.5" d="M875.268 603.428H872.671V617.904H875.268V603.428Z" fill="white"/>
<path opacity="0.5" d="M884.226 603.428H881.629V617.904H884.226V603.428Z" fill="white"/>
<path opacity="0.5" d="M893.249 603.428H890.653V617.904H893.249V603.428Z" fill="white"/>
<path opacity="0.5" d="M902.273 603.428H899.676V617.904H902.273V603.428Z" fill="white"/>
<path opacity="0.5" d="M911.296 603.428H908.699V617.904H911.296V603.428Z" fill="white"/>
<path opacity="0.5" d="M920.255 603.428H917.658V617.904H920.255V603.428Z" fill="white"/>
<path opacity="0.5" d="M929.278 603.428H926.681V617.904H929.278V603.428Z" fill="white"/>
<path opacity="0.5" d="M938.301 603.428H935.705V617.904H938.301V603.428Z" fill="white"/>
<path opacity="0.5" d="M947.26 603.428H944.664V617.904H947.26V603.428Z" fill="white"/>
<path opacity="0.5" d="M956.283 603.428H953.687V617.904H956.283V603.428Z" fill="white"/>
<path opacity="0.5" d="M866.244 623.551H863.647V638.027H866.244V623.551Z" fill="white"/>
<path opacity="0.5" d="M875.268 623.551H872.671V638.027H875.268V623.551Z" fill="white"/>
<path opacity="0.5" d="M884.226 623.551H881.629V638.027H884.226V623.551Z" fill="white"/>
<path opacity="0.5" d="M893.249 623.551H890.653V638.027H893.249V623.551Z" fill="white"/>
<path opacity="0.5" d="M902.273 623.551H899.676V638.027H902.273V623.551Z" fill="white"/>
<path opacity="0.5" d="M911.296 623.551H908.699V638.027H911.296V623.551Z" fill="white"/>
<path opacity="0.5" d="M920.255 623.551H917.658V638.027H920.255V623.551Z" fill="white"/>
<path opacity="0.5" d="M929.278 623.551H926.681V638.027H929.278V623.551Z" fill="white"/>
<path opacity="0.5" d="M938.301 623.551H935.705V638.027H938.301V623.551Z" fill="white"/>
<path opacity="0.5" d="M947.26 623.551H944.664V638.027H947.26V623.551Z" fill="white"/>
<path opacity="0.5" d="M956.283 623.551H953.687V638.027H956.283V623.551Z" fill="white"/>
<path opacity="0.5" d="M866.244 643.676H863.647V658.152H866.244V643.676Z" fill="white"/>
<path opacity="0.5" d="M875.268 643.676H872.671V658.152H875.268V643.676Z" fill="white"/>
<path opacity="0.5" d="M884.226 643.676H881.629V658.152H884.226V643.676Z" fill="white"/>
<path opacity="0.5" d="M893.249 643.676H890.653V658.152H893.249V643.676Z" fill="white"/>
<path opacity="0.5" d="M902.273 643.676H899.676V658.152H902.273V643.676Z" fill="white"/>
<path opacity="0.5" d="M911.296 643.676H908.699V658.152H911.296V643.676Z" fill="white"/>
<path opacity="0.5" d="M920.255 643.676H917.658V658.152H920.255V643.676Z" fill="white"/>
<path opacity="0.5" d="M929.278 643.676H926.681V658.152H929.278V643.676Z" fill="white"/>
<path opacity="0.5" d="M938.301 643.676H935.705V658.152H938.301V643.676Z" fill="white"/>
<path opacity="0.5" d="M947.26 643.676H944.664V658.152H947.26V643.676Z" fill="white"/>
<path opacity="0.5" d="M956.283 643.676H953.687V658.152H956.283V643.676Z" fill="white"/>
<path opacity="0.5" d="M893.249 663.799H890.653V678.275H893.249V663.799Z" fill="white"/>
<path opacity="0.5" d="M902.273 663.799H899.676V678.275H902.273V663.799Z" fill="white"/>
<path opacity="0.5" d="M911.296 663.799H908.699V678.275H911.296V663.799Z" fill="white"/>
<path opacity="0.5" d="M920.255 663.799H917.658V678.275H920.255V663.799Z" fill="white"/>
<path opacity="0.5" d="M929.278 663.799H926.681V678.275H929.278V663.799Z" fill="white"/>
<path opacity="0.5" d="M938.301 663.799H935.705V678.275H938.301V663.799Z" fill="white"/>
<path opacity="0.5" d="M947.26 663.799H944.664V678.275H947.26V663.799Z" fill="white"/>
<path opacity="0.5" d="M956.283 663.799H953.687V678.275H956.283V663.799Z" fill="white"/>
<path opacity="0.5" d="M902.273 685.092H899.676V699.568H902.273V685.092Z" fill="white"/>
<path opacity="0.5" d="M911.296 685.092H908.699V699.568H911.296V685.092Z" fill="white"/>
<path opacity="0.5" d="M920.255 685.092H917.658V699.568H920.255V685.092Z" fill="white"/>
<path opacity="0.5" d="M929.278 685.092H926.681V699.568H929.278V685.092Z" fill="white"/>
<path opacity="0.5" d="M938.301 685.092H935.705V699.568H938.301V685.092Z" fill="white"/>
<path opacity="0.5" d="M947.26 685.092H944.664V699.568H947.26V685.092Z" fill="white"/>
<path opacity="0.5" d="M956.283 685.092H953.687V699.568H956.283V685.092Z" fill="white"/>
<path opacity="0.33" d="M1043.92 639.326H1037.75V654.971H1043.92V639.326Z" fill="white"/>
<path opacity="0.33" d="M1043.92 669.252H1037.75V684.897H1043.92V669.252Z" fill="white"/>
<path opacity="0.33" d="M1043.92 699.18H1037.75V714.825H1043.92V699.18Z" fill="white"/>
<path opacity="0.33" d="M1043.92 729.172H1037.75V744.817H1043.92V729.172Z" fill="white"/>
<path opacity="0.33" d="M1043.92 757.41H1037.75V773.055H1043.92V757.41Z" fill="white"/>
<path opacity="0.33" d="M1043.92 787.336H1037.75V802.981H1043.92V787.336Z" fill="white"/>
<path opacity="0.33" d="M1070.34 639.326H1064.17V654.971H1070.34V639.326Z" fill="white"/>
<path opacity="0.33" d="M1070.34 669.252H1064.17V684.897H1070.34V669.252Z" fill="white"/>
<path opacity="0.33" d="M1070.34 699.18H1064.17V714.825H1070.34V699.18Z" fill="white"/>
<path opacity="0.33" d="M1070.34 729.172H1064.17V744.817H1070.34V729.172Z" fill="white"/>
<path opacity="0.33" d="M1070.34 757.41H1064.17V773.055H1070.34V757.41Z" fill="white"/>
<path opacity="0.33" d="M1070.34 787.336H1064.17V802.981H1070.34V787.336Z" fill="white"/>
<path opacity="0.33" d="M1096.83 639.326H1090.66V654.971H1096.83V639.326Z" fill="white"/>
<path opacity="0.33" d="M1096.83 669.252H1090.66V684.897H1096.83V669.252Z" fill="white"/>
<path opacity="0.33" d="M1096.83 699.18H1090.66V714.825H1096.83V699.18Z" fill="white"/>
<path opacity="0.33" d="M1096.83 729.172H1090.66V744.817H1096.83V729.172Z" fill="white"/>
<path opacity="0.33" d="M1096.83 757.41H1090.66V773.055H1096.83V757.41Z" fill="white"/>
<path opacity="0.33" d="M1096.83 787.336H1090.66V802.981H1096.83V787.336Z" fill="white"/>
<path opacity="0.33" d="M1123.31 639.326H1117.15V654.971H1123.31V639.326Z" fill="white"/>
<path opacity="0.33" d="M1123.31 669.252H1117.15V684.897H1123.31V669.252Z" fill="white"/>
<path opacity="0.33" d="M1123.31 699.18H1117.15V714.825H1123.31V699.18Z" fill="white"/>
<path opacity="0.33" d="M1123.31 729.172H1117.15V744.817H1123.31V729.172Z" fill="white"/>
<path opacity="0.33" d="M1123.31 757.41H1117.15V773.055H1123.31V757.41Z" fill="white"/>
<path opacity="0.33" d="M1123.31 787.336H1117.15V802.981H1123.31V787.336Z" fill="white"/>
<path opacity="0.5" d="M943.43 420.947H938.302V434.645H943.43V420.947Z" fill="white"/>
<path opacity="0.5" d="M956.089 420.947H950.96V434.645H956.089V420.947Z" fill="white"/>
<path opacity="0.5" d="M968.747 420.947H963.619V434.645H968.747V420.947Z" fill="white"/>
<path opacity="0.5" d="M981.471 420.947H976.343V434.645H981.471V420.947Z" fill="white"/>
<path opacity="0.5" d="M943.43 443.797H938.302V457.494H943.43V443.797Z" fill="white"/>
<path opacity="0.5" d="M956.089 443.797H950.96V457.494H956.089V443.797Z" fill="white"/>
<path opacity="0.5" d="M968.747 443.797H963.619V457.494H968.747V443.797Z" fill="white"/>
<path opacity="0.5" d="M981.471 443.797H976.343V457.494H981.471V443.797Z" fill="white"/>
<path opacity="0.5" d="M943.43 466.584H938.302V480.281H943.43V466.584Z" fill="white"/>
<path opacity="0.5" d="M956.089 466.584H950.96V480.281H956.089V466.584Z" fill="white"/>
<path opacity="0.5" d="M995.818 420.947H990.689V434.645H995.818V420.947Z" fill="white"/>
<path opacity="0.4" d="M599.502 559.805H596.257V572.398H599.502V559.805Z" fill="white"/>
<path opacity="0.4" d="M610.993 559.805H607.747V572.398H610.993V559.805Z" fill="white"/>
<path opacity="0.4" d="M624.495 559.805H621.25V572.398H624.495V559.805Z" fill="white"/>
<path opacity="0.4" d="M635.986 559.805H632.74V572.398H635.986V559.805Z" fill="white"/>
<path opacity="0.4" d="M573.861 559.805H570.615V572.398H573.861V559.805Z" fill="white"/>
<path opacity="0.4" d="M585.416 559.805H582.17V572.398H585.416V559.805Z" fill="white"/>
<path opacity="0.4" d="M599.502 581.615H596.257V594.209H599.502V581.615Z" fill="white"/>
<path opacity="0.4" d="M610.993 581.615H607.747V594.209H610.993V581.615Z" fill="white"/>
<path opacity="0.4" d="M624.495 581.615H621.25V594.209H624.495V581.615Z" fill="white"/>
<path opacity="0.4" d="M635.986 581.615H632.74V594.209H635.986V581.615Z" fill="white"/>
<path opacity="0.4" d="M573.861 581.615H570.615V594.209H573.861V581.615Z" fill="white"/>
<path opacity="0.4" d="M585.416 581.615H582.17V594.209H585.416V581.615Z" fill="white"/>
<path opacity="0.4" d="M599.502 603.428H596.257V616.022H599.502V603.428Z" fill="white"/>
<path opacity="0.4" d="M610.993 603.428H607.747V616.022H610.993V603.428Z" fill="white"/>
<path opacity="0.4" d="M624.495 603.428H621.25V616.022H624.495V603.428Z" fill="white"/>
<path opacity="0.4" d="M635.986 603.428H632.74V616.022H635.986V603.428Z" fill="white"/>
<path opacity="0.4" d="M573.861 603.428H570.615V616.022H573.861V603.428Z" fill="white"/>
<path opacity="0.4" d="M585.416 603.428H582.17V616.022H585.416V603.428Z" fill="white"/>
<path opacity="0.5" d="M1210.89 656.074H1205.82V675.549H1210.89V656.074Z" fill="white"/>
<path opacity="0.5" d="M1226.4 656.074H1221.34V675.549H1226.4V656.074Z" fill="white"/>
<path opacity="0.5" d="M1240.94 656.074H1235.88V675.549H1240.94V656.074Z" fill="white"/>
<path opacity="0.33" d="M1558.38 660.1H1554.55V671.07H1558.38V660.1Z" fill="white"/>
<path opacity="0.33" d="M1570.46 660.1H1566.63V671.07H1570.46V660.1Z" fill="white"/>
<path opacity="0.33" d="M1558.38 660.1H1554.55V671.07H1558.38V660.1Z" fill="white"/>
<path opacity="0.33" d="M1570.46 660.1H1566.63V671.07H1570.46V660.1Z" fill="white"/>
<path opacity="0.33" d="M1581.82 660.1H1577.99V671.07H1581.82V660.1Z" fill="white"/>
<path opacity="0.33" d="M1593.83 660.1H1590V671.07H1593.83V660.1Z" fill="white"/>
<path opacity="0.33" d="M1558.38 679.77H1554.55V690.74H1558.38V679.77Z" fill="white"/>
<path opacity="0.33" d="M1570.46 679.77H1566.63V690.74H1570.46V679.77Z" fill="white"/>
<path opacity="0.33" d="M1558.38 679.77H1554.55V690.74H1558.38V679.77Z" fill="white"/>
<path opacity="0.33" d="M1570.46 679.77H1566.63V690.74H1570.46V679.77Z" fill="white"/>
<path opacity="0.33" d="M1581.82 679.77H1577.99V690.74H1581.82V679.77Z" fill="white"/>
<path opacity="0.33" d="M1593.83 679.77H1590V690.74H1593.83V679.77Z" fill="white"/>
<path opacity="0.33" d="M1558.38 700.672H1554.55V711.643H1558.38V700.672Z" fill="white"/>
<path opacity="0.33" d="M1570.46 700.672H1566.63V711.643H1570.46V700.672Z" fill="white"/>
<path opacity="0.33" d="M1558.38 700.672H1554.55V711.643H1558.38V700.672Z" fill="white"/>
<path opacity="0.33" d="M1570.46 700.672H1566.63V711.643H1570.46V700.672Z" fill="white"/>
<path opacity="0.33" d="M1581.82 700.672H1577.99V711.643H1581.82V700.672Z" fill="white"/>
<path opacity="0.33" d="M1593.83 700.672H1590V711.643H1593.83V700.672Z" fill="white"/>
<path opacity="0.33" d="M1607.01 660.1H1603.18V671.07H1607.01V660.1Z" fill="white"/>
<path opacity="0.33" d="M1607.01 679.77H1603.18V690.74H1607.01V679.77Z" fill="white"/>
<path opacity="0.33" d="M1619.08 660.1H1615.25V671.07H1619.08V660.1Z" fill="white"/>
<path opacity="0.33" d="M1258.66 627.576H1254.51V644.649H1258.66V627.576Z" fill="white"/>
<path opacity="0.33" d="M1279.24 627.576H1275.09V644.649H1279.24V627.576Z" fill="white"/>
<path opacity="0.33" d="M1299.76 627.576H1295.6V644.649H1299.76V627.576Z" fill="white"/>
<path opacity="0.33" d="M1320.27 627.576H1316.12V644.649H1320.27V627.576Z" fill="white"/>
<path opacity="0.33" d="M1258.66 662.762H1254.51V679.835H1258.66V662.762Z" fill="white"/>
<path opacity="0.33" d="M1279.24 662.762H1275.09V679.835H1279.24V662.762Z" fill="white"/>
<path opacity="0.33" d="M1299.76 662.762H1295.6V679.835H1299.76V662.762Z" fill="white"/>
<path opacity="0.33" d="M1320.27 662.762H1316.12V679.835H1320.27V662.762Z" fill="white"/>
<path opacity="0.33" d="M1258.66 698.789H1254.51V715.862H1258.66V698.789Z" fill="white"/>
<path opacity="0.33" d="M1279.24 698.789H1275.09V715.862H1279.24V698.789Z" fill="white"/>
<path opacity="0.33" d="M1299.76 698.789H1295.6V715.862H1299.76V698.789Z" fill="white"/>
<path opacity="0.33" d="M1320.27 698.789H1316.12V715.862H1320.27V698.789Z" fill="white"/>
<path opacity="0.33" d="M1258.66 734.818H1254.51V751.891H1258.66V734.818Z" fill="white"/>
<path opacity="0.33" d="M1279.24 734.818H1275.09V751.891H1279.24V734.818Z" fill="white"/>
<path opacity="0.33" d="M1299.76 734.818H1295.6V751.891H1299.76V734.818Z" fill="white"/>
<path opacity="0.33" d="M1320.27 734.818H1316.12V751.891H1320.27V734.818Z" fill="white"/>
<path opacity="0.33" d="M1258.66 767.537H1254.51V784.61H1258.66V767.537Z" fill="white"/>
<path opacity="0.33" d="M1279.24 767.537H1275.09V784.61H1279.24V767.537Z" fill="white"/>
<path opacity="0.33" d="M1299.76 767.537H1295.6V784.61H1299.76V767.537Z" fill="white"/>
<path opacity="0.33" d="M1258.66 804.02H1254.51V821.093H1258.66V804.02Z" fill="white"/>
<path opacity="0.33" d="M1279.24 804.02H1275.09V821.093H1279.24V804.02Z" fill="white"/>
<path opacity="0.33" d="M1299.76 804.02H1295.6V821.093H1299.76V804.02Z" fill="white"/>
<path opacity="0.33" d="M1320.27 767.537H1316.12V784.61H1320.27V767.537Z" fill="white"/>
<path opacity="0.33" d="M1725.54 717.875H1721.32V727.677H1725.54V717.875Z" fill="white"/>
<path opacity="0.33" d="M1725.54 733.715H1721.32V743.517H1725.54V733.715Z" fill="white"/>
<path opacity="0.33" d="M1736.38 717.875H1732.17V727.677H1736.38V717.875Z" fill="white"/>
</g>
<defs>
<filter id="filter0_d" x="160" y="163" width="1721" height="777" filterUnits="userSpaceOnUse" color-interpolation-filters="sRGB">
<feFlood flood-opacity="0" result="BackgroundImageFix"/>
<feColorMatrix in="SourceAlpha" type="matrix" values="0 0 0 0 0 0 0 0 0 0 0 0 0 0 0 0 0 0 127 0" result="hardAlpha"/>
<feOffset dy="12"/>
<feGaussianBlur stdDeviation="6"/>
<feColorMatrix type="matrix" values="0 0 0 0 0.705972 0 0 0 0 0.824711 0 0 0 0 0.920833 0 0 0 0.8 0"/>
<feBlend mode="normal" in2="BackgroundImageFix" result="effect1_dropShadow"/>
<feBlend mode="normal" in="SourceGraphic" in2="effect1_dropShadow" result="shape"/>
</filter>
<linearGradient id="paint0_linear" x1="1020.5" y1="163" x2="1020.5" y2="916" gradientUnits="userSpaceOnUse">
<stop stop-color="#15B9FF"/>
<stop offset="0.998833" stop-color="#FFFFFE"/>
</linearGradient>
</defs>
</svg>
