<?xml version="1.0" encoding="utf-8"?>
<!-- Generator: Adobe Illustrator 25.2.1, SVG Export Plug-In . SVG Version: 6.00 Build 0)  -->
<svg version="1.1" id="Layer_1" xmlns="http://www.w3.org/2000/svg" xmlns:xlink="http://www.w3.org/1999/xlink" x="0px" y="0px"
	 viewBox="0 0 16 22" style="enable-background:new 0 0 16 22;" xml:space="preserve">
<style type="text/css">
	.st0{fill:#2570C6;enable-background:new    ;}
</style>
<path class="st0" d="M3,21c0,0.6,0.4,1,1,1s1-0.4,1-1s-0.4-1-1-1S3,20.4,3,21z M7,21c0,0.6,0.4,1,1,1c0.6,0,1-0.4,1-1s-0.4-1-1-1
	C7.4,20,7,20.4,7,21z M9,1c0-0.6-0.4-1-1-1C7.4,0,7,0.4,7,1v8c0,0.6,0.4,1,1,1c0.6,0,1-0.4,1-1V1z M13.2,2.9C12.8,2.6,12.3,2.7,12,3
	c-0.4,0.4-0.4,1.2,0.1,1.6C13.3,5.7,14,7.3,14,9c0,3.3-2.7,6-6,6s-6-2.7-6-6c0-1.7,0.7-3.3,1.9-4.4C4.4,4.2,4.5,3.5,4,3
	C3.7,2.7,3.2,2.6,2.8,2.9C1.1,4.4,0,6.6,0,9c0,4.4,3.6,8,8,8s8-3.6,8-8C16,6.6,14.9,4.4,13.2,2.9z M11,21c0,0.6,0.4,1,1,1s1-0.4,1-1
	s-0.4-1-1-1S11,20.4,11,21z"/>
</svg>
