<svg width="16" height="22" viewBox="0 0 16 22" fill="none" xmlns="http://www.w3.org/2000/svg">
<path opacity="0.46" d="M3 21C3 21.5523 3.44772 22 4 22C4.55228 22 5 21.5523 5 21C5 20.4477 4.55228 20 4 20C3.44772 20 3 20.4477 3 21ZM7 21C7 21.5523 7.44772 22 8 22C8.55229 22 9 21.5523 9 21C9 20.4477 8.55229 20 8 20C7.44772 20 7 20.4477 7 21ZM9 1C9 0.447715 8.55229 0 8 0C7.44772 0 7 0.447715 7 1V9C7 9.55228 7.44772 10 8 10C8.55229 10 9 9.55229 9 9V1ZM13.2028 2.93498C12.8454 2.62977 12.3184 2.68156 11.9861 3.01389C11.5402 3.4598 11.6349 4.20648 12.0964 4.63628C13.2666 5.72615 14 7.27456 14 9C14 12.31 11.31 15 8 15C4.69 15 2 12.31 2 9C2 7.27062 2.73675 5.71907 3.90655 4.62376C4.36366 4.19575 4.45513 3.45513 4.01234 3.01234C3.68091 2.68091 3.15537 2.62927 2.79886 2.93356C1.08496 4.3964 0 6.57056 0 9C0 13.42 3.58 17 8 17C12.42 17 16 13.42 16 9C16 6.57134 14.9157 4.39781 13.2028 2.93498ZM11 21C11 21.5523 11.4477 22 12 22C12.5523 22 13 21.5523 13 21C13 20.4477 12.5523 20 12 20C11.4477 20 11 20.4477 11 21Z" fill="#2570C6"/>
</svg>
