<svg width="38" height="38" viewBox="0 0 38 38" fill="none" xmlns="http://www.w3.org/2000/svg">
<path d="M24.541 1.58398H11.8743C9.68935 1.58398 7.91602 3.35732 7.91602 5.54232V32.459C7.91602 34.644 9.68935 36.4173 11.8743 36.4173H24.541C26.726 36.4173 28.4994 34.644 28.4994 32.459V5.54232C28.4994 3.35732 26.726 1.58398 24.541 1.58398ZM18.2077 34.834C16.8935 34.834 15.8327 33.7731 15.8327 32.459C15.8327 31.1448 16.8935 30.084 18.2077 30.084C19.5218 30.084 20.5827 31.1448 20.5827 32.459C20.5827 33.7731 19.5218 34.834 18.2077 34.834ZM25.3327 28.5006H11.0827V6.33398H25.3327V28.5006Z" fill="#67B8EE"/>
</svg>
