<svg width="24" height="24" viewBox="0 0 24 24" fill="none" xmlns="http://www.w3.org/2000/svg">
<path d="M19 8C18.4477 8 18 7.55228 18 7V4C18 3.44772 17.5523 3 17 3H7C6.44771 3 6 3.44772 6 4V7C6 7.55228 5.55228 8 5 8C3.34 8 2 9.34 2 11V16C2 16.5523 2.44772 17 3 17H5C5.55228 17 6 17.4477 6 18V20C6 20.5523 6.44772 21 7 21H17C17.5523 21 18 20.5523 18 20V18C18 17.4477 18.4477 17 19 17H21C21.5523 17 22 16.5523 22 16V11C22 9.34 20.66 8 19 8ZM8 6C8 5.44772 8.44772 5 9 5H15C15.5523 5 16 5.44772 16 6V7C16 7.55228 15.5523 8 15 8H9C8.44772 8 8 7.55228 8 7V6ZM16 17V18C16 18.5523 15.5523 19 15 19H9C8.44772 19 8 18.5523 8 18V16C8 15.4477 8.44772 15 9 15H15C15.5523 15 16 15.4477 16 16V17ZM19 15C18.4477 15 18 14.5523 18 14C18 13.4477 17.5523 13 17 13H7C6.44771 13 6 13.4477 6 14C6 14.5523 5.55228 15 5 15C4.44772 15 4 14.5523 4 14V11C4 10.45 4.45 10 5 10H19C19.55 10 20 10.45 20 11V14C20 14.5523 19.5523 15 19 15Z" fill="white"/>
<path d="M18 12.5C18.5523 12.5 19 12.0523 19 11.5C19 10.9477 18.5523 10.5 18 10.5C17.4477 10.5 17 10.9477 17 11.5C17 12.0523 17.4477 12.5 18 12.5Z" fill="white"/>
</svg>
