<svg width="322" height="342" viewBox="0 0 322 342" fill="none" xmlns="http://www.w3.org/2000/svg">
<g clip-path="url(#clip0)">
<path d="M152.756 230.305C152.368 229.634 151.964 228.935 151.577 228.264C144.59 218.456 132.382 214.85 123.181 220.162C122.372 220.53 121.456 220.584 120.611 220.313C119.766 220.043 119.052 219.468 118.609 218.7C118.166 217.932 118.024 217.026 118.213 216.159C118.401 215.292 118.906 214.526 119.629 214.009L201.183 166.923L132.473 47.9139L129.801 54.5505C129.514 55.2281 129.027 55.8024 128.405 56.1962C127.784 56.59 127.056 56.7846 126.321 56.7537L116.973 56.2797L112.016 65.9073C111.698 66.5008 111.22 66.9939 110.637 67.3306C110.054 67.6674 109.388 67.8345 108.715 67.813L97.8996 67.5638L91.9091 82.6872C91.6229 83.4827 91.0637 84.1515 90.331 84.5745C89.5982 84.9976 88.7395 85.1475 87.9073 84.9976L73.9448 81.8607L66.4993 92.575C66.2064 93.0437 65.8028 93.4334 65.324 93.7098C64.8452 93.9862 64.3059 94.1409 63.7536 94.1603L54.1949 94.4687L46.0019 106.587C45.5598 107.234 44.9172 107.718 44.1731 107.965C43.4289 108.212 42.6245 108.208 41.8837 107.953L34.9578 105.536L119.04 251.171C125.168 261.786 137.756 266.183 146.84 260.938L147.103 260.787L148.855 259.775C151.636 257.485 153.775 254.514 155.064 251.153C156.352 247.792 156.746 244.156 156.207 240.6C155.758 236.971 154.584 233.47 152.756 230.305ZM115.615 90.1527L135.799 78.4994C136.205 78.2093 136.667 78.0072 137.155 77.9061C137.643 77.8049 138.147 77.8069 138.635 77.912C139.122 78.017 139.581 78.2228 139.984 78.5161C140.386 78.8094 140.723 79.1836 140.972 79.6149C141.221 80.0461 141.377 80.5247 141.43 81.02C141.482 81.5153 141.431 82.0162 141.278 82.4907C141.125 82.9651 140.875 83.4026 140.543 83.7749C140.212 84.1472 139.806 84.4461 139.352 84.6525L119.167 96.3059C118.762 96.5959 118.3 96.798 117.812 96.8992C117.323 97.0003 116.819 96.9983 116.332 96.8932C115.845 96.7882 115.385 96.5824 114.983 96.2891C114.58 95.9959 114.243 95.6216 113.995 95.1904C113.746 94.7591 113.59 94.2805 113.537 93.7852C113.484 93.2899 113.536 92.789 113.689 92.3145C113.841 91.8401 114.091 91.4026 114.423 91.0303C114.755 90.658 115.161 90.3591 115.615 90.1527ZM128.259 112.053L148.443 100.4C148.849 100.11 149.311 99.9078 149.799 99.8066C150.288 99.7055 150.792 99.7075 151.279 99.8125C151.766 99.9176 152.226 100.123 152.628 100.417C153.031 100.71 153.367 101.084 153.616 101.515C153.865 101.947 154.021 102.425 154.074 102.921C154.127 103.416 154.075 103.917 153.922 104.391C153.77 104.866 153.519 105.303 153.188 105.675C152.856 106.048 152.45 106.347 151.996 106.553L131.812 118.206C131.406 118.496 130.944 118.699 130.456 118.8C129.967 118.901 129.464 118.899 128.976 118.794C128.489 118.689 128.03 118.483 127.627 118.19C127.224 117.896 126.888 117.522 126.639 117.091C126.39 116.66 126.234 116.181 126.181 115.686C126.129 115.191 126.18 114.69 126.333 114.215C126.485 113.741 126.736 113.303 127.067 112.931C127.399 112.559 127.805 112.26 128.259 112.053ZM140.92 133.983L161.105 122.33C161.918 121.86 162.884 121.732 163.791 121.974C164.698 122.217 165.471 122.809 165.939 123.621C166.408 124.433 166.535 125.398 166.291 126.305C166.048 127.211 165.454 127.984 164.64 128.454L144.456 140.107C143.643 140.577 142.676 140.704 141.77 140.462C140.863 140.22 140.09 139.628 139.621 138.816C139.152 138.004 139.026 137.038 139.269 136.132C139.513 135.226 140.107 134.453 140.92 133.983ZM153.565 155.884L173.749 144.23C174.155 143.94 174.616 143.738 175.105 143.637C175.593 143.536 176.097 143.538 176.584 143.643C177.071 143.748 177.531 143.954 177.934 144.247C178.336 144.54 178.673 144.915 178.922 145.346C179.171 145.777 179.327 146.256 179.379 146.751C179.432 147.246 179.38 147.747 179.228 148.222C179.075 148.696 178.825 149.133 178.493 149.506C178.161 149.878 177.755 150.177 177.301 150.383L157.117 162.037C156.711 162.327 156.25 162.529 155.761 162.63C155.273 162.731 154.769 162.729 154.282 162.624C153.795 162.519 153.335 162.313 152.932 162.02C152.53 161.727 152.193 161.352 151.944 160.921C151.695 160.49 151.539 160.011 151.487 159.516C151.434 159.021 151.486 158.52 151.638 158.045C151.791 157.571 152.041 157.134 152.373 156.761C152.705 156.389 153.111 156.09 153.565 155.884ZM59.6483 122.465L99.8122 99.2764C100.218 98.9864 100.68 98.7843 101.168 98.6831C101.656 98.582 102.16 98.584 102.648 98.689C103.135 98.7941 103.594 98.9999 103.997 99.2931C104.4 99.5864 104.736 99.9607 104.985 100.392C105.234 100.823 105.39 101.302 105.443 101.797C105.495 102.292 105.444 102.793 105.291 103.268C105.138 103.742 104.888 104.18 104.557 104.552C104.225 104.924 103.819 105.223 103.365 105.43L63.2008 128.618C62.3922 128.986 61.4761 129.04 60.6309 128.769C59.7858 128.499 59.072 127.924 58.6286 127.156C58.1853 126.388 58.0441 125.482 58.2326 124.615C58.4211 123.748 58.9257 122.982 59.6483 122.465ZM72.2926 144.366L112.457 121.177C112.862 120.887 113.324 120.685 113.812 120.584C114.301 120.483 114.805 120.485 115.292 120.59C115.779 120.695 116.239 120.9 116.641 121.194C117.044 121.487 117.38 121.861 117.629 122.292C117.878 122.724 118.034 123.202 118.087 123.698C118.14 124.193 118.088 124.694 117.935 125.168C117.783 125.643 117.533 126.08 117.201 126.452C116.869 126.825 116.463 127.124 116.009 127.33L75.8451 150.519C75.0365 150.886 74.1204 150.94 73.2752 150.67C72.4301 150.399 71.7163 149.824 71.2729 149.056C70.8296 148.289 70.6884 147.383 70.8769 146.516C71.0654 145.649 71.57 144.882 72.2926 144.366ZM84.9537 166.295L125.118 143.107C125.931 142.637 126.897 142.509 127.804 142.751C128.711 142.994 129.484 143.586 129.953 144.398C130.421 145.21 130.548 146.175 130.304 147.082C130.061 147.988 129.467 148.761 128.653 149.231L88.4894 172.419C87.6759 172.889 86.7096 173.017 85.8029 172.775C84.8961 172.533 84.1233 171.94 83.6545 171.128C83.1856 170.316 83.0591 169.351 83.3027 168.444C83.5464 167.538 84.1403 166.765 84.9537 166.295ZM96.2483 192.941C96.0194 192.546 95.8735 192.108 95.8194 191.655C95.7652 191.201 95.8041 190.741 95.9335 190.302C96.0629 189.864 96.2802 189.456 96.5721 189.104C96.864 188.752 97.2245 188.463 97.6317 188.254L137.796 165.066C138.201 164.776 138.663 164.573 139.152 164.472C139.64 164.371 140.144 164.373 140.631 164.478C141.118 164.583 141.578 164.789 141.98 165.082C142.383 165.376 142.72 165.75 142.969 166.181C143.218 166.612 143.373 167.091 143.426 167.586C143.479 168.082 143.427 168.582 143.275 169.057C143.122 169.531 142.872 169.969 142.54 170.341C142.208 170.713 141.802 171.012 141.348 171.219L101.184 194.407C100.767 194.649 100.304 194.804 99.825 194.861C99.3459 194.918 98.8603 194.876 98.3981 194.739C97.9358 194.602 97.5067 194.371 97.137 194.062C96.7673 193.753 96.4649 193.372 96.2483 192.941Z" fill="url(#paint0_linear)"/>
<path d="M227.462 159.956L138.518 211.309C145.988 213.065 152.556 217.485 156.989 223.74C157.652 224.649 158.263 225.594 158.819 226.572L159.038 226.951C159.526 227.797 160.015 228.642 160.34 229.543C160.665 230.444 160.761 230.272 160.834 230.736C160.907 231.199 161.344 231.957 161.577 232.562C161.809 233.167 161.856 233.451 161.975 233.926C162.094 234.402 162.33 235.082 162.471 235.662C162.611 236.242 162.691 236.584 162.764 237.048C162.901 237.629 163.006 238.217 163.08 238.809L163.248 240.112L163.389 241.975C163.382 242.368 163.421 242.773 163.431 243.195C163.441 243.617 163.39 244.541 163.338 245.193C163.286 245.845 163.303 245.874 163.292 246.192C163.281 246.509 163.077 247.91 162.946 248.763L162.864 249.16C162.673 250.16 162.424 251.148 162.118 252.118L251.034 200.783C260.878 195.1 263.573 181.217 257.007 169.844C250.441 158.471 237.306 154.273 227.462 159.956ZM221.757 209.909L172.713 238.225C171.905 238.592 170.989 238.646 170.143 238.376C169.298 238.105 168.584 237.53 168.141 236.762C167.698 235.994 167.556 235.089 167.745 234.222C167.933 233.355 168.438 232.588 169.161 232.072L218.205 203.756C218.61 203.466 219.072 203.264 219.56 203.163C220.049 203.062 220.553 203.064 221.04 203.169C221.527 203.274 221.987 203.48 222.389 203.773C222.792 204.066 223.128 204.44 223.377 204.872C223.626 205.303 223.782 205.782 223.835 206.277C223.888 206.772 223.836 207.273 223.683 207.747C223.531 208.222 223.281 208.659 222.949 209.032C222.617 209.404 222.211 209.703 221.757 209.909ZM249.507 193.888L238.202 200.415C237.394 200.782 236.478 200.836 235.633 200.566C234.787 200.295 234.074 199.72 233.63 198.952C233.187 198.184 233.046 197.279 233.234 196.411C233.423 195.544 233.927 194.778 234.65 194.261L245.954 187.735C246.763 187.367 247.679 187.314 248.524 187.584C249.369 187.854 250.083 188.429 250.526 189.197C250.97 189.965 251.111 190.871 250.922 191.738C250.734 192.605 250.229 193.372 249.507 193.888Z" fill="url(#paint1_linear)"/>
</g>
<defs>
<linearGradient id="paint0_linear" x1="83.1767" y1="75.7919" x2="179.263" y2="242.219" gradientUnits="userSpaceOnUse">
<stop stop-color="#C6E1FF"/>
<stop offset="0.34375" stop-color="#C0DEFF" stop-opacity="0.63"/>
<stop offset="0.651042" stop-color="#9DCBFC" stop-opacity="0.869027"/>
<stop offset="0.932292" stop-color="#01549A"/>
<stop offset="1" stop-color="#36A6F4"/>
</linearGradient>
<linearGradient id="paint1_linear" x1="191.928" y1="180.472" x2="215.5" y2="221.299" gradientUnits="userSpaceOnUse">
<stop stop-color="#C6E1FF"/>
<stop offset="0.34375" stop-color="#C0DEFF" stop-opacity="0.63"/>
<stop offset="0.651042" stop-color="#9DCBFC" stop-opacity="0.869027"/>
<stop offset="0.932292" stop-color="#01549A"/>
<stop offset="1" stop-color="#36A6F4"/>
</linearGradient>
<clipPath id="clip0">
<rect width="215.865" height="269.386" fill="white" transform="translate(0 108.533) rotate(-30)"/>
</clipPath>
</defs>
</svg>
