<svg xmlns="http://www.w3.org/2000/svg" xmlns:xlink="http://www.w3.org/1999/xlink" viewBox="0 0 225.64 215.24"><defs><style>.cls-1{fill:url(#linear-gradient);}.cls-2{fill:url(#linear-gradient-2);}</style><linearGradient id="linear-gradient" x1="48.22" y1="236.18" x2="144.31" y2="69.76" gradientTransform="matrix(1, 0, 0, -1, 0, 264.06)" gradientUnits="userSpaceOnUse"><stop offset="0" stop-color="#c6e1ff"/><stop offset="0.34" stop-color="#c0deff" stop-opacity="0.63"/><stop offset="0.65" stop-color="#9dcbfc" stop-opacity="0.87"/><stop offset="0.93" stop-color="#01549a"/><stop offset="1" stop-color="#36a6f4"/></linearGradient><linearGradient id="linear-gradient-2" x1="156.97" y1="131.5" x2="180.54" y2="90.68" xlink:href="#linear-gradient"/></defs><g id="Layer_2" data-name="Layer 2"><g id="Layer_1-2" data-name="Layer 1"><path class="cls-1" d="M117.8,182.39l-1.18-2c-7-9.81-19.2-13.41-28.4-8.1a3.56,3.56,0,0,1-5-4,3.52,3.52,0,0,1,1.41-2.15L166.23,119,97.52,0,94.84,6.64a3.61,3.61,0,0,1-3.48,2.2L82,8.37l-5,9.62a3.6,3.6,0,0,1-3.3,1.91l-10.82-.25L57,34.77a3.5,3.5,0,0,1-1.58,1.89,3.58,3.58,0,0,1-2.42.42L39,34,31.54,44.66a3.36,3.36,0,0,1-1.17,1.14,3.47,3.47,0,0,1-1.57.45l-9.56.3L11,58.67A3.56,3.56,0,0,1,6.93,60L0,57.62,84.08,203.26c6.13,10.61,18.72,15,27.8,9.76l.27-.15,1.75-1a20.78,20.78,0,0,0,7.35-19.17A27.31,27.31,0,0,0,117.8,182.39ZM80.66,42.24l20.18-11.65a3.61,3.61,0,0,1,1.36-.6,3.52,3.52,0,0,1,1.48,0,3.64,3.64,0,0,1,1.35.6,3.55,3.55,0,0,1,1,1.1,3.5,3.5,0,0,1,.46,1.41,3.68,3.68,0,0,1-.15,1.47,3.55,3.55,0,0,1-.73,1.28,3.73,3.73,0,0,1-1.2.88L84.21,48.39a3.78,3.78,0,0,1-1.36.6A3.58,3.58,0,0,1,80,48.38a3.58,3.58,0,0,1-1-1.1,3.5,3.5,0,0,1-.46-1.41,3.68,3.68,0,0,1,.15-1.47,3.63,3.63,0,0,1,1.93-2.16ZM93.3,64.14l20.19-11.65a3.58,3.58,0,0,1,4.18,0,3.72,3.72,0,0,1,1,1.1,3.66,3.66,0,0,1,.46,1.41,3.51,3.51,0,0,1-.16,1.47,3.55,3.55,0,0,1-.73,1.28,3.69,3.69,0,0,1-1.19.88L96.85,70.29a3.58,3.58,0,0,1-4.18,0,3.72,3.72,0,0,1-1-1.1,3.66,3.66,0,0,1-.46-1.41,3.51,3.51,0,0,1,.16-1.47A3.55,3.55,0,0,1,92.11,65,3.69,3.69,0,0,1,93.3,64.14ZM106,86.07l20.19-11.65A3.53,3.53,0,0,1,131,75.71a3.54,3.54,0,0,1-1.3,4.83L109.5,92.19A3.54,3.54,0,1,1,106,86.07ZM118.61,108l20.18-11.65a3.61,3.61,0,0,1,1.36-.6,3.52,3.52,0,0,1,1.48,0,3.64,3.64,0,0,1,1.35.6,3.55,3.55,0,0,1,1,1.1,3.5,3.5,0,0,1,.46,1.41,3.68,3.68,0,0,1-.15,1.47,3.55,3.55,0,0,1-.73,1.28,3.73,3.73,0,0,1-1.2.88l-20.18,11.65a3.61,3.61,0,0,1-1.36.6,3.52,3.52,0,0,1-1.48,0,3.64,3.64,0,0,1-1.35-.6,3.68,3.68,0,0,1-1-1.1,3.5,3.5,0,0,1-.46-1.41,3.68,3.68,0,0,1,.15-1.47,3.44,3.44,0,0,1,.74-1.28A3.58,3.58,0,0,1,118.61,108ZM24.69,74.55,64.85,51.36a3.59,3.59,0,0,1,1.36-.59,3.62,3.62,0,0,1,2.83.61,3.6,3.6,0,0,1,1,1.1,3.67,3.67,0,0,1,.46,1.4,3.48,3.48,0,0,1-.16,1.47,3.51,3.51,0,0,1-.73,1.29,3.69,3.69,0,0,1-1.19.88L28.24,80.7a3.55,3.55,0,0,1-4.57-1.46,3.56,3.56,0,0,1,1-4.69Zm12.64,21.9L77.5,73.26a3.55,3.55,0,0,1,2.83-.58,3.57,3.57,0,0,1,2.8,3.1A3.64,3.64,0,0,1,83,77.25a3.4,3.4,0,0,1-.74,1.29,3.58,3.58,0,0,1-1.19.88L40.89,102.61a3.62,3.62,0,0,1-2.57.15,3.59,3.59,0,0,1-2.4-4.16A3.62,3.62,0,0,1,37.33,96.45ZM50,118.38,90.16,95.19A3.56,3.56,0,0,1,95,96.48a3.55,3.55,0,0,1-1.3,4.84L53.53,124.51a3.54,3.54,0,0,1-2.68.35,3.55,3.55,0,0,1-2.51-4.33A3.55,3.55,0,0,1,50,118.38ZM61.29,145a3.51,3.51,0,0,1-.43-1.29,3.43,3.43,0,0,1,.12-1.35,3.37,3.37,0,0,1,.63-1.2,3.61,3.61,0,0,1,1.06-.85l40.17-23.19a3.55,3.55,0,0,1,1.35-.59,3.52,3.52,0,0,1,2.83.61,3.58,3.58,0,0,1,1.45,2.5,3.64,3.64,0,0,1-.15,1.47,3.62,3.62,0,0,1-1.93,2.17L66.23,146.49a3.49,3.49,0,0,1-1.36.46,3.83,3.83,0,0,1-1.43-.12,3.56,3.56,0,0,1-2.15-1.8Z"/><path class="cls-2" d="M192.5,112,103.56,163.4A31.4,31.4,0,0,1,122,175.83a29.06,29.06,0,0,1,1.83,2.83l.22.38a15.68,15.68,0,0,1,1.3,2.59c.33.9.42.73.5,1.19a13.5,13.5,0,0,0,.74,1.83A9.68,9.68,0,0,1,127,186c.12.48.35,1.16.49,1.74s.22.92.3,1.38a17.71,17.71,0,0,1,.31,1.77l.17,1.3.14,1.86c0,.39,0,.8,0,1.22s0,1.35-.09,2,0,.68,0,1-.21,1.72-.34,2.57l-.08.4a25,25,0,0,1-.75,2.95l88.92-51.33c9.84-5.68,12.54-19.57,6-30.94S202.35,106.36,192.5,112Zm-5.7,50-49,28.31a3.57,3.57,0,0,1-3.56-6.15l49.05-28.32a3.6,3.6,0,0,1,4.18,0,3.6,3.6,0,0,1,1,1.1,3.58,3.58,0,0,1-1.62,5Zm27.75-16-11.31,6.53a3.57,3.57,0,0,1-3.55-6.15L211,139.82a3.56,3.56,0,0,1,5,4A3.52,3.52,0,0,1,214.55,146Z"/></g></g></svg>