<svg width="24" height="24" viewBox="0 0 24 24" fill="none" xmlns="http://www.w3.org/2000/svg">
<path d="M19.9393 3.06066C19.6967 3.3033 19.3033 3.3033 19.0607 3.06066L18.7071 2.70711C18.3166 2.31658 17.6834 2.31658 17.2929 2.70711L17.2071 2.79289C16.8166 3.18342 16.1834 3.18342 15.7929 2.79289L15.7071 2.70711C15.3166 2.31658 14.6834 2.31658 14.2929 2.70711L14.2071 2.79289C13.8166 3.18342 13.1834 3.18342 12.7929 2.79289L12.7071 2.70711C12.3166 2.31658 11.6834 2.31658 11.2929 2.70711L11.2071 2.79289C10.8166 3.18342 10.1834 3.18342 9.79289 2.79289L9.70711 2.70711C9.31658 2.31658 8.68342 2.31658 8.29289 2.70711L7.93934 3.06066C7.6967 3.3033 7.3033 3.3033 7.06066 3.06066C6.66925 2.66925 6 2.94646 6 3.5V15C6 15.5523 5.55228 16 5 16H4C3.44772 16 3 16.4477 3 17V19C3 20.66 4.34 22 6 22H18C19.66 22 21 20.66 21 19V3.5C21 2.94646 20.3307 2.66925 19.9393 3.06066ZM15 19C15 19.5523 14.5523 20 14 20H6C5.45 20 5 19.55 5 19C5 18.4477 5.44772 18 6 18H14C14.5523 18 15 18.4477 15 19ZM19 19C19 19.55 18.55 20 18 20C17.45 20 17 19.55 17 19V17C17 16.4477 16.5523 16 16 16H9C8.44772 16 8 15.5523 8 15V6C8 5.44772 8.44772 5 9 5H18C18.5523 5 19 5.44772 19 6V19Z" fill="#0055B7"/>
<path d="M15 7H9V9H15V7Z" fill="#0055B7"/>
<path d="M18 7H16V9H18V7Z" fill="#0055B7"/>
<path d="M15 10H9V12H15V10Z" fill="#0055B7"/>
<path d="M18 10H16V12H18V10Z" fill="#0055B7"/>
</svg>
