<svg width="24" height="24" viewBox="0 0 24 24" fill="none" xmlns="http://www.w3.org/2000/svg">
<path d="M12 6C15.6244 6 18.8739 7.94795 20.5939 11.0655C20.7432 11.3359 20.7432 11.6641 20.5939 11.9345C18.8739 15.052 15.6244 17 12 17C8.37558 17 5.12612 15.0521 3.40606 11.9345C3.25684 11.6641 3.25684 11.3359 3.40606 11.0655C5.12612 7.94795 8.37558 6 12 6ZM12 4C7.13943 4 2.96872 6.93897 1.15062 11.1358C1.04995 11.3681 1.04995 11.6319 1.15062 11.8642C2.96872 16.061 7.13943 19 12 19C16.8606 19 21.0313 16.061 22.8494 11.8642C22.9501 11.6319 22.9501 11.3681 22.8494 11.1358C21.0313 6.93897 16.8606 4 12 4ZM12 9C13.38 9 14.5 10.12 14.5 11.5C14.5 12.88 13.38 14 12 14C10.62 14 9.5 12.88 9.5 11.5C9.5 10.12 10.62 9 12 9ZM12 7C9.52 7 7.5 9.02 7.5 11.5C7.5 13.98 9.52 16 12 16C14.48 16 16.5 13.98 16.5 11.5C16.5 9.02 14.48 7 12 7Z" fill="#0055B7"/>
</svg>
